<svg width="422" height="93" viewBox="0 0 422 93" fill="none" xmlns="http://www.w3.org/2000/svg">
<rect x="0.5" y="0.5" width="421" height="92" rx="9.5" fill="white"/>
<rect x="0.5" y="0.5" width="421" height="92" rx="9.5" stroke="#E4E4E4"/>
<path d="M21 39.5C21.5523 39.5 22 39.0523 22 38.5C22 37.9477 21.5523 37.5 21 37.5C20.4477 37.5 20 37.9477 20 38.5C20 39.0523 20.4477 39.5 21 39.5Z" stroke="black" stroke-width="2" stroke-linecap="round" stroke-linejoin="round"/>
<path d="M29 39.5C29.5523 39.5 30 39.0523 30 38.5C30 37.9477 29.5523 37.5 29 37.5C28.4477 37.5 28 37.9477 28 38.5C28 39.0523 28.4477 39.5 29 39.5Z" stroke="black" stroke-width="2" stroke-linecap="round" stroke-linejoin="round"/>
<path d="M21 47.5C21.5523 47.5 22 47.0523 22 46.5C22 45.9477 21.5523 45.5 21 45.5C20.4477 45.5 20 45.9477 20 46.5C20 47.0523 20.4477 47.5 21 47.5Z" stroke="black" stroke-width="2" stroke-linecap="round" stroke-linejoin="round"/>
<path d="M29 47.5C29.5523 47.5 30 47.0523 30 46.5C30 45.9477 29.5523 45.5 29 45.5C28.4477 45.5 28 45.9477 28 46.5C28 47.0523 28.4477 47.5 29 47.5Z" stroke="black" stroke-width="2" stroke-linecap="round" stroke-linejoin="round"/>
<path d="M21 55.5C21.5523 55.5 22 55.0523 22 54.5C22 53.9477 21.5523 53.5 21 53.5C20.4477 53.5 20 53.9477 20 54.5C20 55.0523 20.4477 55.5 21 55.5Z" stroke="black" stroke-width="2" stroke-linecap="round" stroke-linejoin="round"/>
<path d="M29 55.5C29.5523 55.5 30 55.0523 30 54.5C30 53.9477 29.5523 53.5 29 53.5C28.4477 53.5 28 53.9477 28 54.5C28 55.0523 28.4477 55.5 29 55.5Z" stroke="black" stroke-width="2" stroke-linecap="round" stroke-linejoin="round"/>
<path d="M63.592 40.447V43H53.8515V26.371H56.945V40.447H63.592ZM68.2962 31.201V43H65.4442V31.201H68.2962ZM68.6872 27.7625C68.6872 28.0078 68.6374 28.2378 68.5377 28.4525C68.4381 28.6672 68.3039 28.855 68.1352 29.016C67.9742 29.177 67.7826 29.3073 67.5602 29.407C67.3379 29.499 67.1002 29.545 66.8472 29.545C66.6019 29.545 66.3681 29.499 66.1457 29.407C65.9311 29.3073 65.7432 29.177 65.5822 29.016C65.4212 28.855 65.2909 28.6672 65.1912 28.4525C65.0992 28.2378 65.0532 28.0078 65.0532 27.7625C65.0532 27.5095 65.0992 27.2718 65.1912 27.0495C65.2909 26.8272 65.4212 26.6355 65.5822 26.4745C65.7432 26.3135 65.9311 26.187 66.1457 26.095C66.3681 25.9953 66.6019 25.9455 66.8472 25.9455C67.1002 25.9455 67.3379 25.9953 67.5602 26.095C67.7826 26.187 67.9742 26.3135 68.1352 26.4745C68.3039 26.6355 68.4381 26.8272 68.5377 27.0495C68.6374 27.2718 68.6872 27.5095 68.6872 27.7625ZM78.3911 33.501C78.3144 33.6237 78.2339 33.7118 78.1496 33.7655C78.0652 33.8115 77.9579 33.8345 77.8276 33.8345C77.6896 33.8345 77.5401 33.7962 77.3791 33.7195C77.2257 33.6428 77.0456 33.5585 76.8386 33.4665C76.6316 33.3668 76.3939 33.2787 76.1256 33.202C75.8649 33.1253 75.5544 33.087 75.1941 33.087C74.6344 33.087 74.1936 33.2058 73.8716 33.4435C73.5572 33.6812 73.4001 33.9917 73.4001 34.375C73.4001 34.628 73.4806 34.8427 73.6416 35.019C73.8102 35.1877 74.0287 35.3372 74.2971 35.4675C74.5731 35.5978 74.8836 35.7167 75.2286 35.824C75.5736 35.9237 75.9224 36.0348 76.2751 36.1575C76.6354 36.2802 76.9881 36.422 77.3331 36.583C77.6781 36.7363 77.9847 36.9357 78.2531 37.181C78.5291 37.4187 78.7476 37.7062 78.9086 38.0435C79.0772 38.3808 79.1616 38.7872 79.1616 39.2625C79.1616 39.8298 79.0581 40.355 78.8511 40.838C78.6517 41.3133 78.3527 41.7273 77.9541 42.08C77.5554 42.425 77.0609 42.6972 76.4706 42.8965C75.8879 43.0882 75.2132 43.184 74.4466 43.184C74.0402 43.184 73.6416 43.1457 73.2506 43.069C72.8672 43 72.4954 42.9003 72.1351 42.77C71.7824 42.6397 71.4527 42.4863 71.1461 42.31C70.8471 42.1337 70.5826 41.942 70.3526 41.735L71.0081 40.654C71.0924 40.5237 71.1921 40.424 71.3071 40.355C71.4221 40.286 71.5677 40.2515 71.7441 40.2515C71.9204 40.2515 72.0852 40.3013 72.2386 40.401C72.3996 40.5007 72.5836 40.608 72.7906 40.723C72.9976 40.838 73.2391 40.9453 73.5151 41.045C73.7987 41.1447 74.1552 41.1945 74.5846 41.1945C74.9219 41.1945 75.2094 41.1562 75.4471 41.0795C75.6924 40.9952 75.8917 40.8878 76.0451 40.7575C76.2061 40.6272 76.3211 40.4777 76.3901 40.309C76.4667 40.1327 76.5051 39.9525 76.5051 39.7685C76.5051 39.4925 76.4207 39.2663 76.2521 39.09C76.0911 38.9137 75.8726 38.7603 75.5966 38.63C75.3282 38.4997 75.0177 38.3847 74.6651 38.285C74.3201 38.1777 73.9636 38.0627 73.5956 37.94C73.2352 37.8173 72.8787 37.6755 72.5261 37.5145C72.1811 37.3458 71.8706 37.135 71.5946 36.882C71.3262 36.629 71.1077 36.3185 70.9391 35.9505C70.7781 35.5825 70.6976 35.1378 70.6976 34.6165C70.6976 34.1335 70.7934 33.6735 70.9851 33.2365C71.1767 32.7995 71.4566 32.42 71.8246 32.098C72.2002 31.7683 72.6641 31.5077 73.2161 31.316C73.7757 31.1167 74.4197 31.017 75.1481 31.017C75.9607 31.017 76.7006 31.1512 77.3676 31.4195C78.0346 31.6878 78.5904 32.0405 79.0351 32.4775L78.3911 33.501ZM85.2325 43.184C84.2052 43.184 83.4155 42.8965 82.8635 42.3215C82.3192 41.7388 82.047 40.9377 82.047 39.918V33.3285H80.8395C80.6862 33.3285 80.5558 33.2787 80.4485 33.179C80.3412 33.0793 80.2875 32.9298 80.2875 32.7305V31.6035L82.185 31.293L82.783 28.073C82.8213 27.9197 82.8942 27.8008 83.0015 27.7165C83.1088 27.6322 83.2468 27.59 83.4155 27.59H84.8875V31.3045H88.0385V33.3285H84.8875V39.7225C84.8875 40.0905 84.9757 40.378 85.152 40.585C85.336 40.792 85.5852 40.8955 85.8995 40.8955C86.0758 40.8955 86.2215 40.8763 86.3365 40.838C86.4592 40.792 86.5627 40.746 86.647 40.7C86.739 40.654 86.8195 40.6118 86.8885 40.5735C86.9575 40.5275 87.0265 40.5045 87.0955 40.5045C87.1798 40.5045 87.2488 40.5275 87.3025 40.5735C87.3562 40.6118 87.4137 40.6732 87.475 40.7575L88.326 42.1375C87.912 42.4825 87.4367 42.7432 86.9 42.9195C86.3633 43.0958 85.8075 43.184 85.2325 43.184ZM99.0034 43H95.8984V26.371H99.0034V43ZM105.897 43.184C104.869 43.184 104.08 42.8965 103.528 42.3215C102.983 41.7388 102.711 40.9377 102.711 39.918V33.3285H101.504C101.35 33.3285 101.22 33.2787 101.113 33.179C101.005 33.0793 100.952 32.9298 100.952 32.7305V31.6035L102.849 31.293L103.447 28.073C103.485 27.9197 103.558 27.8008 103.666 27.7165C103.773 27.6322 103.911 27.59 104.08 27.59H105.552V31.3045H108.703V33.3285H105.552V39.7225C105.552 40.0905 105.64 40.378 105.816 40.585C106 40.792 106.249 40.8955 106.564 40.8955C106.74 40.8955 106.886 40.8763 107.001 40.838C107.123 40.792 107.227 40.746 107.311 40.7C107.403 40.654 107.484 40.6118 107.553 40.5735C107.622 40.5275 107.691 40.5045 107.76 40.5045C107.844 40.5045 107.913 40.5275 107.967 40.5735C108.02 40.6118 108.078 40.6732 108.139 40.7575L108.99 42.1375C108.576 42.4825 108.101 42.7432 107.564 42.9195C107.027 43.0958 106.472 43.184 105.897 43.184ZM118.033 35.7435C118.033 35.3755 117.979 35.0305 117.872 34.7085C117.772 34.3788 117.619 34.0913 117.412 33.846C117.205 33.6007 116.94 33.409 116.618 33.271C116.304 33.1253 115.936 33.0525 115.514 33.0525C114.694 33.0525 114.046 33.2863 113.571 33.754C113.103 34.2217 112.804 34.8848 112.674 35.7435H118.033ZM112.616 37.457C112.662 38.0627 112.77 38.5878 112.938 39.0325C113.107 39.4695 113.329 39.8337 113.605 40.125C113.881 40.4087 114.207 40.6233 114.583 40.769C114.966 40.907 115.388 40.976 115.848 40.976C116.308 40.976 116.703 40.9223 117.032 40.815C117.37 40.7077 117.661 40.5888 117.906 40.4585C118.159 40.3282 118.378 40.2093 118.562 40.102C118.753 39.9947 118.937 39.941 119.114 39.941C119.351 39.941 119.528 40.0292 119.643 40.2055L120.459 41.2405C120.145 41.6085 119.792 41.919 119.401 42.172C119.01 42.4173 118.6 42.6167 118.171 42.77C117.749 42.9157 117.316 43.0192 116.871 43.0805C116.434 43.1418 116.009 43.1725 115.595 43.1725C114.774 43.1725 114.012 43.0383 113.306 42.77C112.601 42.494 111.988 42.0915 111.466 41.5625C110.945 41.0258 110.535 40.3665 110.236 39.5845C109.937 38.7948 109.787 37.8825 109.787 36.8475C109.787 36.0425 109.918 35.2873 110.178 34.582C110.439 33.869 110.811 33.2518 111.294 32.7305C111.784 32.2015 112.379 31.7837 113.076 31.477C113.782 31.1703 114.575 31.017 115.457 31.017C116.2 31.017 116.887 31.1358 117.515 31.3735C118.144 31.6112 118.684 31.96 119.137 32.42C119.589 32.8723 119.942 33.432 120.195 34.099C120.455 34.7583 120.586 35.5135 120.586 36.3645C120.586 36.7938 120.54 37.0852 120.448 37.2385C120.356 37.3842 120.179 37.457 119.919 37.457H112.616ZM122.717 43V31.201H124.454C124.822 31.201 125.063 31.3735 125.178 31.7185L125.362 32.5925C125.569 32.3625 125.784 32.1517 126.006 31.96C126.236 31.7683 126.478 31.6035 126.731 31.4655C126.992 31.3275 127.268 31.2202 127.559 31.1435C127.858 31.0592 128.184 31.017 128.536 31.017C129.28 31.017 129.89 31.2202 130.365 31.6265C130.848 32.0252 131.208 32.558 131.446 33.225C131.63 32.834 131.86 32.5005 132.136 32.2245C132.412 31.9408 132.715 31.7108 133.044 31.5345C133.374 31.3582 133.723 31.2278 134.091 31.1435C134.467 31.0592 134.842 31.017 135.218 31.017C135.87 31.017 136.448 31.1167 136.954 31.316C137.46 31.5153 137.886 31.8067 138.231 32.19C138.576 32.5733 138.837 33.041 139.013 33.593C139.197 34.145 139.289 34.7775 139.289 35.4905V43H136.448V35.4905C136.448 34.7392 136.284 34.1757 135.954 33.8C135.624 33.4167 135.141 33.225 134.505 33.225C134.214 33.225 133.941 33.2748 133.688 33.3745C133.443 33.4742 133.225 33.6198 133.033 33.8115C132.849 33.9955 132.703 34.2293 132.596 34.513C132.489 34.7967 132.435 35.1225 132.435 35.4905V43H129.583V35.4905C129.583 34.7008 129.422 34.1258 129.1 33.7655C128.786 33.4052 128.322 33.225 127.708 33.225C127.294 33.225 126.907 33.3285 126.547 33.5355C126.194 33.7348 125.865 34.0108 125.558 34.3635V43H122.717ZM147.421 31.0055C147.536 30.2082 147.758 29.5105 148.088 28.9125C148.417 28.3068 148.828 27.8047 149.318 27.406C149.817 26.9997 150.384 26.6968 151.02 26.4975C151.664 26.2905 152.354 26.187 153.09 26.187C153.857 26.187 154.547 26.2982 155.16 26.5205C155.781 26.7352 156.31 27.038 156.747 27.429C157.184 27.8123 157.518 28.2647 157.748 28.786C157.985 29.3073 158.104 29.8708 158.104 30.4765C158.104 31.0055 158.043 31.4732 157.92 31.8795C157.805 32.2782 157.637 32.627 157.414 32.926C157.192 33.225 156.916 33.478 156.586 33.685C156.257 33.892 155.885 34.0645 155.471 34.2025C156.467 34.5168 157.211 34.996 157.702 35.64C158.192 36.284 158.438 37.0928 158.438 38.0665C158.438 38.8945 158.284 39.6267 157.978 40.263C157.671 40.8993 157.257 41.436 156.736 41.873C156.214 42.3023 155.609 42.6282 154.919 42.8505C154.236 43.0728 153.512 43.184 152.745 43.184C151.91 43.184 151.181 43.0882 150.56 42.8965C149.939 42.7048 149.399 42.4212 148.939 42.0455C148.479 41.6698 148.088 41.2098 147.766 40.6655C147.444 40.1212 147.168 39.4925 146.938 38.7795L148.191 38.262C148.521 38.124 148.828 38.0895 149.111 38.1585C149.403 38.2198 149.613 38.3732 149.744 38.6185C149.882 38.8868 150.031 39.1513 150.192 39.412C150.361 39.6727 150.56 39.9065 150.79 40.1135C151.02 40.3128 151.289 40.4777 151.595 40.608C151.91 40.7307 152.281 40.792 152.711 40.792C153.194 40.792 153.615 40.7153 153.976 40.562C154.336 40.401 154.635 40.194 154.873 39.941C155.118 39.688 155.298 39.4082 155.413 39.1015C155.536 38.7872 155.597 38.4728 155.597 38.1585C155.597 37.7598 155.555 37.3995 155.471 37.0775C155.386 36.7478 155.21 36.468 154.942 36.238C154.673 36.008 154.286 35.8278 153.78 35.6975C153.282 35.5672 152.611 35.502 151.768 35.502V33.478C152.465 33.4703 153.044 33.4052 153.504 33.2825C153.964 33.1598 154.328 32.9912 154.597 32.7765C154.873 32.5542 155.064 32.2897 155.172 31.983C155.279 31.6763 155.333 31.339 155.333 30.971C155.333 30.189 155.114 29.5948 154.677 29.1885C154.24 28.7822 153.658 28.579 152.929 28.579C152.592 28.579 152.281 28.6288 151.998 28.7285C151.714 28.8205 151.457 28.9547 151.227 29.131C151.005 29.2997 150.817 29.499 150.664 29.729C150.51 29.959 150.395 30.212 150.319 30.488C150.188 30.8407 150.016 31.0745 149.801 31.1895C149.594 31.3045 149.299 31.3313 148.916 31.27L147.421 31.0055Z" fill="black"/>
<path d="M63.56 64.216C63.56 65.064 63.4187 65.8427 63.136 66.552C62.8533 67.2613 62.456 67.872 61.944 68.384C61.432 68.896 60.816 69.2933 60.096 69.576C59.376 69.8587 58.576 70 57.696 70H53.288V58.432H57.696C58.576 58.432 59.376 58.576 60.096 58.864C60.816 59.1467 61.432 59.544 61.944 60.056C62.456 60.5627 62.8533 61.1707 63.136 61.88C63.4187 62.5893 63.56 63.368 63.56 64.216ZM61.352 64.216C61.352 63.5813 61.2667 63.0133 61.096 62.512C60.9307 62.0053 60.688 61.5787 60.368 61.232C60.0533 60.88 59.6693 60.6107 59.216 60.424C58.768 60.2373 58.2613 60.144 57.696 60.144H55.448V68.288H57.696C58.2613 68.288 58.768 68.1947 59.216 68.008C59.6693 67.8213 60.0533 67.5547 60.368 67.208C60.688 66.856 60.9307 66.4293 61.096 65.928C61.2667 65.4213 61.352 64.8507 61.352 64.216ZM70.3265 64.952C70.3265 64.696 70.2892 64.456 70.2145 64.232C70.1452 64.0027 70.0385 63.8027 69.8945 63.632C69.7505 63.4613 69.5665 63.328 69.3425 63.232C69.1238 63.1307 68.8678 63.08 68.5745 63.08C68.0038 63.08 67.5532 63.2427 67.2225 63.568C66.8972 63.8933 66.6892 64.3547 66.5985 64.952H70.3265ZM66.5585 66.144C66.5905 66.5653 66.6652 66.9307 66.7825 67.24C66.8998 67.544 67.0545 67.7973 67.2465 68C67.4385 68.1973 67.6652 68.3467 67.9265 68.448C68.1932 68.544 68.4865 68.592 68.8065 68.592C69.1265 68.592 69.4012 68.5547 69.6305 68.48C69.8652 68.4053 70.0678 68.3227 70.2385 68.232C70.4145 68.1413 70.5665 68.0587 70.6945 67.984C70.8278 67.9093 70.9558 67.872 71.0785 67.872C71.2438 67.872 71.3665 67.9333 71.4465 68.056L72.0145 68.776C71.7958 69.032 71.5505 69.248 71.2785 69.424C71.0065 69.5947 70.7212 69.7333 70.4225 69.84C70.1292 69.9413 69.8278 70.0133 69.5185 70.056C69.2145 70.0987 68.9185 70.12 68.6305 70.12C68.0598 70.12 67.5292 70.0267 67.0385 69.84C66.5478 69.648 66.1212 69.368 65.7585 69C65.3958 68.6267 65.1105 68.168 64.9025 67.624C64.6945 67.0747 64.5905 66.44 64.5905 65.72C64.5905 65.16 64.6812 64.6347 64.8625 64.144C65.0438 63.648 65.3025 63.2187 65.6385 62.856C65.9798 62.488 66.3932 62.1973 66.8785 61.984C67.3692 61.7707 67.9212 61.664 68.5345 61.664C69.0518 61.664 69.5292 61.7467 69.9665 61.912C70.4038 62.0773 70.7798 62.32 71.0945 62.64C71.4092 62.9547 71.6545 63.344 71.8305 63.808C72.0118 64.2667 72.1025 64.792 72.1025 65.384C72.1025 65.6827 72.0705 65.8853 72.0065 65.992C71.9425 66.0933 71.8198 66.144 71.6385 66.144H66.5585ZM78.5934 63.392C78.54 63.4773 78.484 63.5387 78.4254 63.576C78.3667 63.608 78.292 63.624 78.2014 63.624C78.1054 63.624 78.0014 63.5973 77.8894 63.544C77.7827 63.4907 77.6574 63.432 77.5134 63.368C77.3694 63.2987 77.204 63.2373 77.0174 63.184C76.836 63.1307 76.62 63.104 76.3694 63.104C75.98 63.104 75.6734 63.1867 75.4494 63.352C75.2307 63.5173 75.1214 63.7333 75.1214 64C75.1214 64.176 75.1774 64.3253 75.2894 64.448C75.4067 64.5653 75.5587 64.6693 75.7454 64.76C75.9374 64.8507 76.1534 64.9333 76.3934 65.008C76.6334 65.0773 76.876 65.1547 77.1214 65.24C77.372 65.3253 77.6174 65.424 77.8574 65.536C78.0974 65.6427 78.3107 65.7813 78.4974 65.952C78.6894 66.1173 78.8414 66.3173 78.9534 66.552C79.0707 66.7867 79.1294 67.0693 79.1294 67.4C79.1294 67.7947 79.0574 68.16 78.9134 68.496C78.7747 68.8267 78.5667 69.1147 78.2894 69.36C78.012 69.6 77.668 69.7893 77.2574 69.928C76.852 70.0613 76.3827 70.128 75.8494 70.128C75.5667 70.128 75.2894 70.1013 75.0174 70.048C74.7507 70 74.492 69.9307 74.2414 69.84C73.996 69.7493 73.7667 69.6427 73.5534 69.52C73.3454 69.3973 73.1614 69.264 73.0014 69.12L73.4574 68.368C73.516 68.2773 73.5854 68.208 73.6654 68.16C73.7454 68.112 73.8467 68.088 73.9694 68.088C74.092 68.088 74.2067 68.1227 74.3134 68.192C74.4254 68.2613 74.5534 68.336 74.6974 68.416C74.8414 68.496 75.0094 68.5707 75.2014 68.64C75.3987 68.7093 75.6467 68.744 75.9454 68.744C76.18 68.744 76.38 68.7173 76.5454 68.664C76.716 68.6053 76.8547 68.5307 76.9614 68.44C77.0734 68.3493 77.1534 68.2453 77.2014 68.128C77.2547 68.0053 77.2814 67.88 77.2814 67.752C77.2814 67.56 77.2227 67.4027 77.1054 67.28C76.9934 67.1573 76.8414 67.0507 76.6494 66.96C76.4627 66.8693 76.2467 66.7893 76.0014 66.72C75.7614 66.6453 75.5134 66.5653 75.2574 66.48C75.0067 66.3947 74.7587 66.296 74.5134 66.184C74.2734 66.0667 74.0574 65.92 73.8654 65.744C73.6787 65.568 73.5267 65.352 73.4094 65.096C73.2974 64.84 73.2414 64.5307 73.2414 64.168C73.2414 63.832 73.308 63.512 73.4414 63.208C73.5747 62.904 73.7694 62.64 74.0254 62.416C74.2867 62.1867 74.6094 62.0053 74.9934 61.872C75.3827 61.7333 75.8307 61.664 76.3374 61.664C76.9027 61.664 77.4174 61.7573 77.8814 61.944C78.3454 62.1307 78.732 62.376 79.0414 62.68L78.5934 63.392ZM86.4966 63.528C86.438 63.6027 86.3793 63.6613 86.3206 63.704C86.2673 63.7467 86.1873 63.768 86.0806 63.768C85.9793 63.768 85.8806 63.7387 85.7846 63.68C85.6886 63.616 85.574 63.5467 85.4406 63.472C85.3073 63.392 85.1473 63.3227 84.9606 63.264C84.7793 63.2 84.5526 63.168 84.2806 63.168C83.934 63.168 83.63 63.232 83.3686 63.36C83.1073 63.4827 82.8886 63.6613 82.7126 63.896C82.542 64.1307 82.414 64.416 82.3286 64.752C82.2433 65.0827 82.2006 65.4587 82.2006 65.88C82.2006 66.3173 82.246 66.7067 82.3366 67.048C82.4326 67.3893 82.5686 67.6773 82.7446 67.912C82.9206 68.1413 83.134 68.3173 83.3846 68.44C83.6353 68.5573 83.918 68.616 84.2326 68.616C84.5473 68.616 84.8006 68.5787 84.9926 68.504C85.19 68.424 85.3553 68.3387 85.4886 68.248C85.622 68.152 85.7366 68.0667 85.8326 67.992C85.934 67.912 86.046 67.872 86.1686 67.872C86.3286 67.872 86.4486 67.9333 86.5286 68.056L87.0966 68.776C86.878 69.032 86.6406 69.248 86.3846 69.424C86.1286 69.5947 85.862 69.7333 85.5846 69.84C85.3126 69.9413 85.03 70.0133 84.7366 70.056C84.4486 70.0987 84.1606 70.12 83.8726 70.12C83.366 70.12 82.8886 70.0267 82.4406 69.84C81.9926 69.648 81.6006 69.3707 81.2646 69.008C80.9286 68.6453 80.662 68.2027 80.4646 67.68C80.2726 67.152 80.1766 66.552 80.1766 65.88C80.1766 65.2773 80.262 64.72 80.4326 64.208C80.6086 63.6907 80.8646 63.2453 81.2006 62.872C81.5366 62.4933 81.9526 62.1973 82.4486 61.984C82.9446 61.7707 83.5153 61.664 84.1606 61.664C84.774 61.664 85.31 61.7627 85.7686 61.96C86.2326 62.1573 86.6486 62.44 87.0166 62.808L86.4966 63.528ZM90.1994 63.216C90.4554 62.7253 90.7594 62.3413 91.1114 62.064C91.4634 61.7813 91.8794 61.64 92.3594 61.64C92.738 61.64 93.042 61.7227 93.2714 61.888L93.1434 63.368C93.1167 63.464 93.0767 63.5333 93.0234 63.576C92.9754 63.6133 92.9087 63.632 92.8234 63.632C92.7434 63.632 92.6234 63.6187 92.4634 63.592C92.3087 63.5653 92.1567 63.552 92.0074 63.552C91.7887 63.552 91.594 63.584 91.4234 63.648C91.2527 63.712 91.098 63.8053 90.9594 63.928C90.826 64.0453 90.706 64.1893 90.5994 64.36C90.498 64.5307 90.402 64.7253 90.3114 64.944V70H88.3354V61.792H89.4954C89.698 61.792 89.8394 61.8293 89.9194 61.904C89.9994 61.9733 90.0527 62.1013 90.0794 62.288L90.1994 63.216ZM96.3521 61.792V70H94.3681V61.792H96.3521ZM96.6241 59.4C96.6241 59.5707 96.5895 59.7307 96.5201 59.88C96.4508 60.0293 96.3575 60.16 96.2401 60.272C96.1281 60.384 95.9948 60.4747 95.8401 60.544C95.6855 60.608 95.5201 60.64 95.3441 60.64C95.1735 60.64 95.0108 60.608 94.8561 60.544C94.7068 60.4747 94.5761 60.384 94.4641 60.272C94.3521 60.16 94.2615 60.0293 94.1921 59.88C94.1281 59.7307 94.0961 59.5707 94.0961 59.4C94.0961 59.224 94.1281 59.0587 94.1921 58.904C94.2615 58.7493 94.3521 58.616 94.4641 58.504C94.5761 58.392 94.7068 58.304 94.8561 58.24C95.0108 58.1707 95.1735 58.136 95.3441 58.136C95.5201 58.136 95.6855 58.1707 95.8401 58.24C95.9948 58.304 96.1281 58.392 96.2401 58.504C96.3575 58.616 96.4508 58.7493 96.5201 58.904C96.5895 59.0587 96.6241 59.224 96.6241 59.4ZM100.343 67.872C100.567 68.144 100.809 68.336 101.071 68.448C101.337 68.56 101.625 68.616 101.935 68.616C102.233 68.616 102.503 68.56 102.743 68.448C102.983 68.336 103.185 68.1653 103.351 67.936C103.521 67.7067 103.652 67.4187 103.743 67.072C103.833 66.72 103.879 66.3067 103.879 65.832C103.879 65.352 103.839 64.9467 103.759 64.616C103.684 64.28 103.575 64.008 103.431 63.8C103.287 63.592 103.111 63.44 102.903 63.344C102.7 63.248 102.468 63.2 102.207 63.2C101.796 63.2 101.447 63.288 101.159 63.464C100.871 63.6347 100.599 63.8773 100.343 64.192V67.872ZM100.239 62.912C100.575 62.5333 100.956 62.2267 101.383 61.992C101.809 61.7573 102.311 61.64 102.887 61.64C103.335 61.64 103.743 61.7333 104.111 61.92C104.484 62.1067 104.804 62.3787 105.071 62.736C105.343 63.088 105.551 63.5253 105.695 64.048C105.844 64.5653 105.919 65.16 105.919 65.832C105.919 66.4453 105.836 67.0133 105.671 67.536C105.505 68.0587 105.268 68.512 104.959 68.896C104.655 69.28 104.284 69.5813 103.847 69.8C103.415 70.0133 102.929 70.12 102.391 70.12C101.932 70.12 101.54 70.0507 101.215 69.912C100.889 69.768 100.599 69.5707 100.343 69.32V72.68H98.3666V61.792H99.5746C99.8306 61.792 99.9986 61.912 100.079 62.152L100.239 62.912ZM115.631 70H113.655V63.272H109.847V67.72C109.847 67.976 109.908 68.176 110.031 68.32C110.159 68.464 110.332 68.536 110.551 68.536C110.674 68.536 110.775 68.5227 110.855 68.496C110.94 68.464 111.012 68.432 111.071 68.4C111.135 68.368 111.191 68.3387 111.239 68.312C111.287 68.28 111.335 68.264 111.383 68.264C111.442 68.264 111.49 68.28 111.527 68.312C111.564 68.3387 111.604 68.3813 111.647 68.44L112.239 69.4C111.951 69.64 111.62 69.8213 111.247 69.944C110.874 70.0667 110.487 70.128 110.087 70.128C109.372 70.128 108.823 69.928 108.439 69.528C108.06 69.1227 107.871 68.5653 107.871 67.856V63.272H107.031C106.924 63.272 106.834 63.2373 106.759 63.168C106.684 63.0987 106.647 62.9947 106.647 62.856V62.072L107.967 61.848L108.383 59.616C108.41 59.5093 108.46 59.4267 108.535 59.368C108.61 59.3093 108.706 59.28 108.823 59.28H109.847V61.864H115.631V70ZM115.975 59.368C115.975 59.5387 115.94 59.7013 115.871 59.856C115.802 60.0053 115.708 60.136 115.591 60.248C115.479 60.36 115.343 60.4507 115.183 60.52C115.028 60.584 114.863 60.616 114.687 60.616C114.516 60.616 114.356 60.584 114.207 60.52C114.058 60.4507 113.927 60.36 113.815 60.248C113.703 60.136 113.612 60.0053 113.543 59.856C113.479 59.7013 113.447 59.5387 113.447 59.368C113.447 59.192 113.479 59.0293 113.543 58.88C113.612 58.7253 113.703 58.592 113.815 58.48C113.927 58.3627 114.058 58.272 114.207 58.208C114.356 58.1387 114.516 58.104 114.687 58.104C114.863 58.104 115.028 58.1387 115.183 58.208C115.343 58.272 115.479 58.3627 115.591 58.48C115.708 58.592 115.802 58.7253 115.871 58.88C115.94 59.0293 115.975 59.192 115.975 59.368ZM121.28 61.664C121.888 61.664 122.44 61.7627 122.936 61.96C123.437 62.1573 123.864 62.4373 124.216 62.8C124.573 63.1627 124.848 63.6053 125.04 64.128C125.232 64.6507 125.328 65.2347 125.328 65.88C125.328 66.5307 125.232 67.1173 125.04 67.64C124.848 68.1627 124.573 68.608 124.216 68.976C123.864 69.344 123.437 69.6267 122.936 69.824C122.44 70.0213 121.888 70.12 121.28 70.12C120.667 70.12 120.109 70.0213 119.608 69.824C119.107 69.6267 118.677 69.344 118.32 68.976C117.968 68.608 117.693 68.1627 117.496 67.64C117.304 67.1173 117.208 66.5307 117.208 65.88C117.208 65.2347 117.304 64.6507 117.496 64.128C117.693 63.6053 117.968 63.1627 118.32 62.8C118.677 62.4373 119.107 62.1573 119.608 61.96C120.109 61.7627 120.667 61.664 121.28 61.664ZM121.28 68.6C121.963 68.6 122.467 68.3707 122.792 67.912C123.123 67.4533 123.288 66.7813 123.288 65.896C123.288 65.0107 123.123 64.336 122.792 63.872C122.467 63.408 121.963 63.176 121.28 63.176C120.587 63.176 120.072 63.4107 119.736 63.88C119.405 64.344 119.24 65.016 119.24 65.896C119.24 66.776 119.405 67.448 119.736 67.912C120.072 68.3707 120.587 68.6 121.28 68.6ZM128.683 62.8C128.849 62.6347 129.022 62.4827 129.203 62.344C129.39 62.2 129.585 62.08 129.787 61.984C129.995 61.8827 130.217 61.8053 130.451 61.752C130.686 61.6933 130.942 61.664 131.219 61.664C131.667 61.664 132.065 61.7413 132.411 61.896C132.758 62.0453 133.046 62.2587 133.275 62.536C133.51 62.808 133.686 63.136 133.803 63.52C133.926 63.8987 133.987 64.3173 133.987 64.776V70H132.011V64.776C132.011 64.2747 131.897 63.888 131.667 63.616C131.438 63.3387 131.089 63.2 130.619 63.2C130.278 63.2 129.958 63.2773 129.659 63.432C129.361 63.5867 129.078 63.7973 128.811 64.064V70H126.835V61.792H128.043C128.299 61.792 128.467 61.912 128.547 62.152L128.683 62.8ZM143.389 61.664C143.997 61.664 144.549 61.7627 145.045 61.96C145.547 62.1573 145.973 62.4373 146.325 62.8C146.683 63.1627 146.957 63.6053 147.149 64.128C147.341 64.6507 147.437 65.2347 147.437 65.88C147.437 66.5307 147.341 67.1173 147.149 67.64C146.957 68.1627 146.683 68.608 146.325 68.976C145.973 69.344 145.547 69.6267 145.045 69.824C144.549 70.0213 143.997 70.12 143.389 70.12C142.776 70.12 142.219 70.0213 141.717 69.824C141.216 69.6267 140.787 69.344 140.429 68.976C140.077 68.608 139.803 68.1627 139.605 67.64C139.413 67.1173 139.317 66.5307 139.317 65.88C139.317 65.2347 139.413 64.6507 139.605 64.128C139.803 63.6053 140.077 63.1627 140.429 62.8C140.787 62.4373 141.216 62.1573 141.717 61.96C142.219 61.7627 142.776 61.664 143.389 61.664ZM143.389 68.6C144.072 68.6 144.576 68.3707 144.901 67.912C145.232 67.4533 145.397 66.7813 145.397 65.896C145.397 65.0107 145.232 64.336 144.901 63.872C144.576 63.408 144.072 63.176 143.389 63.176C142.696 63.176 142.181 63.4107 141.845 63.88C141.515 64.344 141.349 65.016 141.349 65.896C141.349 66.776 141.515 67.448 141.845 67.912C142.181 68.3707 142.696 68.6 143.389 68.6ZM149.318 70V63.28L148.606 63.168C148.451 63.136 148.326 63.0827 148.23 63.008C148.139 62.928 148.094 62.816 148.094 62.672V61.864H149.318V61.256C149.318 60.7867 149.387 60.3653 149.526 59.992C149.67 59.6187 149.872 59.3013 150.134 59.04C150.4 58.7787 150.723 58.5787 151.102 58.44C151.48 58.3013 151.907 58.232 152.382 58.232C152.76 58.232 153.112 58.2827 153.438 58.384L153.398 59.376C153.392 59.4507 153.371 59.512 153.334 59.56C153.296 59.6027 153.246 59.6373 153.182 59.664C153.123 59.6853 153.054 59.7013 152.974 59.712C152.894 59.7173 152.808 59.72 152.718 59.72C152.483 59.72 152.272 59.7467 152.086 59.8C151.904 59.848 151.75 59.936 151.622 60.064C151.494 60.1867 151.395 60.352 151.326 60.56C151.262 60.7627 151.23 61.016 151.23 61.32V61.864H153.366V63.272H151.294V70H149.318ZM160.806 70.128C160.091 70.128 159.542 69.928 159.158 69.528C158.779 69.1227 158.59 68.5653 158.59 67.856V63.272H157.75C157.643 63.272 157.552 63.2373 157.478 63.168C157.403 63.0987 157.366 62.9947 157.366 62.856V62.072L158.686 61.856L159.102 59.616C159.128 59.5093 159.179 59.4267 159.254 59.368C159.328 59.3093 159.424 59.28 159.542 59.28H160.566V61.864H162.758V63.272H160.566V67.72C160.566 67.976 160.627 68.176 160.75 68.32C160.878 68.464 161.051 68.536 161.27 68.536C161.392 68.536 161.494 68.5227 161.574 68.496C161.659 68.464 161.731 68.432 161.79 68.4C161.854 68.368 161.91 68.3387 161.958 68.312C162.006 68.28 162.054 68.264 162.102 68.264C162.16 68.264 162.208 68.28 162.246 68.312C162.283 68.3387 162.323 68.3813 162.366 68.44L162.958 69.4C162.67 69.64 162.339 69.8213 161.966 69.944C161.592 70.0667 161.206 70.128 160.806 70.128ZM165.999 62.672C166.319 62.3733 166.671 62.1307 167.055 61.944C167.439 61.7573 167.89 61.664 168.407 61.664C168.855 61.664 169.252 61.7413 169.599 61.896C169.946 62.0453 170.234 62.2587 170.463 62.536C170.698 62.808 170.874 63.136 170.991 63.52C171.114 63.8987 171.175 64.3173 171.175 64.776V70H169.199V64.776C169.199 64.2747 169.084 63.888 168.855 63.616C168.626 63.3387 168.276 63.2 167.807 63.2C167.466 63.2 167.146 63.2773 166.847 63.432C166.548 63.5867 166.266 63.7973 165.999 64.064V70H164.023V58.112H165.999V62.672ZM178.342 64.952C178.342 64.696 178.305 64.456 178.23 64.232C178.161 64.0027 178.054 63.8027 177.91 63.632C177.766 63.4613 177.582 63.328 177.358 63.232C177.139 63.1307 176.883 63.08 176.59 63.08C176.019 63.08 175.569 63.2427 175.238 63.568C174.913 63.8933 174.705 64.3547 174.614 64.952H178.342ZM174.574 66.144C174.606 66.5653 174.681 66.9307 174.798 67.24C174.915 67.544 175.07 67.7973 175.262 68C175.454 68.1973 175.681 68.3467 175.942 68.448C176.209 68.544 176.502 68.592 176.822 68.592C177.142 68.592 177.417 68.5547 177.646 68.48C177.881 68.4053 178.083 68.3227 178.254 68.232C178.43 68.1413 178.582 68.0587 178.71 67.984C178.843 67.9093 178.971 67.872 179.094 67.872C179.259 67.872 179.382 67.9333 179.462 68.056L180.03 68.776C179.811 69.032 179.566 69.248 179.294 69.424C179.022 69.5947 178.737 69.7333 178.438 69.84C178.145 69.9413 177.843 70.0133 177.534 70.056C177.23 70.0987 176.934 70.12 176.646 70.12C176.075 70.12 175.545 70.0267 175.054 69.84C174.563 69.648 174.137 69.368 173.774 69C173.411 68.6267 173.126 68.168 172.918 67.624C172.71 67.0747 172.606 66.44 172.606 65.72C172.606 65.16 172.697 64.6347 172.878 64.144C173.059 63.648 173.318 63.2187 173.654 62.856C173.995 62.488 174.409 62.1973 174.894 61.984C175.385 61.7707 175.937 61.664 176.55 61.664C177.067 61.664 177.545 61.7467 177.982 61.912C178.419 62.0773 178.795 62.32 179.11 62.64C179.425 62.9547 179.67 63.344 179.846 63.808C180.027 64.2667 180.118 64.792 180.118 65.384C180.118 65.6827 180.086 65.8853 180.022 65.992C179.958 66.0933 179.835 66.144 179.654 66.144H174.574ZM188.228 70.128C187.513 70.128 186.964 69.928 186.58 69.528C186.201 69.1227 186.012 68.5653 186.012 67.856V63.272H185.172C185.065 63.272 184.974 63.2373 184.9 63.168C184.825 63.0987 184.788 62.9947 184.788 62.856V62.072L186.108 61.856L186.524 59.616C186.55 59.5093 186.601 59.4267 186.676 59.368C186.75 59.3093 186.846 59.28 186.964 59.28H187.988V61.864H190.18V63.272H187.988V67.72C187.988 67.976 188.049 68.176 188.172 68.32C188.3 68.464 188.473 68.536 188.692 68.536C188.814 68.536 188.916 68.5227 188.996 68.496C189.081 68.464 189.153 68.432 189.212 68.4C189.276 68.368 189.332 68.3387 189.38 68.312C189.428 68.28 189.476 68.264 189.524 68.264C189.582 68.264 189.63 68.28 189.668 68.312C189.705 68.3387 189.745 68.3813 189.788 68.44L190.38 69.4C190.092 69.64 189.761 69.8213 189.388 69.944C189.014 70.0667 188.628 70.128 188.228 70.128ZM193.421 62.672C193.741 62.3733 194.093 62.1307 194.477 61.944C194.861 61.7573 195.311 61.664 195.829 61.664C196.277 61.664 196.674 61.7413 197.021 61.896C197.367 62.0453 197.655 62.2587 197.885 62.536C198.119 62.808 198.295 63.136 198.413 63.52C198.535 63.8987 198.597 64.3173 198.597 64.776V70H196.621V64.776C196.621 64.2747 196.506 63.888 196.277 63.616C196.047 63.3387 195.698 63.2 195.229 63.2C194.887 63.2 194.567 63.2773 194.269 63.432C193.97 63.5867 193.687 63.7973 193.421 64.064V70H191.445V58.112H193.421V62.672ZM202.524 61.792V70H200.54V61.792H202.524ZM202.796 59.4C202.796 59.5707 202.761 59.7307 202.692 59.88C202.623 60.0293 202.529 60.16 202.412 60.272C202.3 60.384 202.167 60.4747 202.012 60.544C201.857 60.608 201.692 60.64 201.516 60.64C201.345 60.64 201.183 60.608 201.028 60.544C200.879 60.4747 200.748 60.384 200.636 60.272C200.524 60.16 200.433 60.0293 200.364 59.88C200.3 59.7307 200.268 59.5707 200.268 59.4C200.268 59.224 200.3 59.0587 200.364 58.904C200.433 58.7493 200.524 58.616 200.636 58.504C200.748 58.392 200.879 58.304 201.028 58.24C201.183 58.1707 201.345 58.136 201.516 58.136C201.692 58.136 201.857 58.1707 202.012 58.24C202.167 58.304 202.3 58.392 202.412 58.504C202.529 58.616 202.623 58.7493 202.692 58.904C202.761 59.0587 202.796 59.224 202.796 59.4ZM206.403 63.216C206.659 62.7253 206.963 62.3413 207.315 62.064C207.667 61.7813 208.083 61.64 208.562 61.64C208.941 61.64 209.245 61.7227 209.475 61.888L209.347 63.368C209.32 63.464 209.28 63.5333 209.227 63.576C209.179 63.6133 209.112 63.632 209.027 63.632C208.947 63.632 208.827 63.6187 208.667 63.592C208.512 63.5653 208.36 63.552 208.211 63.552C207.992 63.552 207.797 63.584 207.627 63.648C207.456 63.712 207.301 63.8053 207.163 63.928C207.029 64.0453 206.909 64.1893 206.803 64.36C206.701 64.5307 206.605 64.7253 206.515 64.944V70H204.539V61.792H205.699C205.901 61.792 206.043 61.8293 206.123 61.904C206.203 61.9733 206.256 62.1013 206.283 62.288L206.403 63.216ZM215.441 63.888C215.217 63.616 214.971 63.424 214.705 63.312C214.443 63.2 214.161 63.144 213.857 63.144C213.558 63.144 213.289 63.2 213.049 63.312C212.809 63.424 212.603 63.5947 212.433 63.824C212.262 64.048 212.131 64.336 212.041 64.688C211.95 65.0347 211.905 65.4453 211.905 65.92C211.905 66.4 211.942 66.808 212.017 67.144C212.097 67.4747 212.209 67.7467 212.353 67.96C212.497 68.168 212.673 68.32 212.881 68.416C213.089 68.5067 213.321 68.552 213.577 68.552C213.987 68.552 214.337 68.4667 214.625 68.296C214.913 68.1253 215.185 67.8827 215.441 67.568V63.888ZM217.417 58.112V70H216.209C215.947 70 215.782 69.88 215.713 69.64L215.545 68.848C215.214 69.2267 214.833 69.5333 214.401 69.768C213.974 70.0027 213.475 70.12 212.905 70.12C212.457 70.12 212.046 70.0267 211.673 69.84C211.299 69.6533 210.977 69.384 210.705 69.032C210.438 68.6747 210.23 68.2347 210.081 67.712C209.937 67.1893 209.865 66.592 209.865 65.92C209.865 65.312 209.947 64.7467 210.113 64.224C210.278 63.7013 210.515 63.248 210.825 62.864C211.134 62.48 211.505 62.1813 211.937 61.968C212.369 61.7493 212.854 61.64 213.393 61.64C213.851 61.64 214.243 61.712 214.569 61.856C214.894 62 215.185 62.1947 215.441 62.44V58.112H217.417ZM225.305 61.792V70H223.321V61.792H225.305ZM225.577 59.4C225.577 59.5707 225.543 59.7307 225.473 59.88C225.404 60.0293 225.311 60.16 225.193 60.272C225.081 60.384 224.948 60.4747 224.793 60.544C224.639 60.608 224.473 60.64 224.297 60.64C224.127 60.64 223.964 60.608 223.809 60.544C223.66 60.4747 223.529 60.384 223.417 60.272C223.305 60.16 223.215 60.0293 223.145 59.88C223.081 59.7307 223.049 59.5707 223.049 59.4C223.049 59.224 223.081 59.0587 223.145 58.904C223.215 58.7493 223.305 58.616 223.417 58.504C223.529 58.392 223.66 58.304 223.809 58.24C223.964 58.1707 224.127 58.136 224.297 58.136C224.473 58.136 224.639 58.1707 224.793 58.24C224.948 58.304 225.081 58.392 225.193 58.504C225.311 58.616 225.404 58.7493 225.473 58.904C225.543 59.0587 225.577 59.224 225.577 59.4ZM230.056 70.128C229.341 70.128 228.792 69.928 228.408 69.528C228.029 69.1227 227.84 68.5653 227.84 67.856V63.272H227C226.893 63.272 226.802 63.2373 226.728 63.168C226.653 63.0987 226.616 62.9947 226.616 62.856V62.072L227.936 61.856L228.352 59.616C228.378 59.5093 228.429 59.4267 228.504 59.368C228.578 59.3093 228.674 59.28 228.792 59.28H229.816V61.864H232.008V63.272H229.816V67.72C229.816 67.976 229.877 68.176 230 68.32C230.128 68.464 230.301 68.536 230.52 68.536C230.642 68.536 230.744 68.5227 230.824 68.496C230.909 68.464 230.981 68.432 231.04 68.4C231.104 68.368 231.16 68.3387 231.208 68.312C231.256 68.28 231.304 68.264 231.352 68.264C231.41 68.264 231.458 68.28 231.496 68.312C231.533 68.3387 231.573 68.3813 231.616 68.44L232.208 69.4C231.92 69.64 231.589 69.8213 231.216 69.944C230.842 70.0667 230.456 70.128 230.056 70.128ZM238.498 64.952C238.498 64.696 238.461 64.456 238.386 64.232C238.317 64.0027 238.21 63.8027 238.066 63.632C237.922 63.4613 237.738 63.328 237.514 63.232C237.296 63.1307 237.04 63.08 236.746 63.08C236.176 63.08 235.725 63.2427 235.394 63.568C235.069 63.8933 234.861 64.3547 234.77 64.952H238.498ZM234.73 66.144C234.762 66.5653 234.837 66.9307 234.954 67.24C235.072 67.544 235.226 67.7973 235.418 68C235.61 68.1973 235.837 68.3467 236.098 68.448C236.365 68.544 236.658 68.592 236.978 68.592C237.298 68.592 237.573 68.5547 237.802 68.48C238.037 68.4053 238.24 68.3227 238.41 68.232C238.586 68.1413 238.738 68.0587 238.866 67.984C239 67.9093 239.128 67.872 239.25 67.872C239.416 67.872 239.538 67.9333 239.618 68.056L240.186 68.776C239.968 69.032 239.722 69.248 239.45 69.424C239.178 69.5947 238.893 69.7333 238.594 69.84C238.301 69.9413 238 70.0133 237.69 70.056C237.386 70.0987 237.09 70.12 236.802 70.12C236.232 70.12 235.701 70.0267 235.21 69.84C234.72 69.648 234.293 69.368 233.93 69C233.568 68.6267 233.282 68.168 233.074 67.624C232.866 67.0747 232.762 66.44 232.762 65.72C232.762 65.16 232.853 64.6347 233.034 64.144C233.216 63.648 233.474 63.2187 233.81 62.856C234.152 62.488 234.565 62.1973 235.05 61.984C235.541 61.7707 236.093 61.664 236.706 61.664C237.224 61.664 237.701 61.7467 238.138 61.912C238.576 62.0773 238.952 62.32 239.266 62.64C239.581 62.9547 239.826 63.344 240.002 63.808C240.184 64.2667 240.274 64.792 240.274 65.384C240.274 65.6827 240.242 65.8853 240.178 65.992C240.114 66.0933 239.992 66.144 239.81 66.144H234.73ZM241.757 70V61.792H242.965C243.221 61.792 243.389 61.912 243.469 62.152L243.597 62.76C243.741 62.6 243.891 62.4533 244.045 62.32C244.205 62.1867 244.373 62.072 244.549 61.976C244.731 61.88 244.923 61.8053 245.125 61.752C245.333 61.6933 245.56 61.664 245.805 61.664C246.323 61.664 246.747 61.8053 247.077 62.088C247.413 62.3653 247.664 62.736 247.829 63.2C247.957 62.928 248.117 62.696 248.309 62.504C248.501 62.3067 248.712 62.1467 248.941 62.024C249.171 61.9013 249.413 61.8107 249.669 61.752C249.931 61.6933 250.192 61.664 250.453 61.664C250.907 61.664 251.309 61.7333 251.661 61.872C252.013 62.0107 252.309 62.2133 252.549 62.48C252.789 62.7467 252.971 63.072 253.093 63.456C253.221 63.84 253.285 64.28 253.285 64.776V70H251.309V64.776C251.309 64.2533 251.195 63.8613 250.965 63.6C250.736 63.3333 250.4 63.2 249.957 63.2C249.755 63.2 249.565 63.2347 249.389 63.304C249.219 63.3733 249.067 63.4747 248.933 63.608C248.805 63.736 248.704 63.8987 248.629 64.096C248.555 64.2933 248.517 64.52 248.517 64.776V70H246.533V64.776C246.533 64.2267 246.421 63.8267 246.197 63.576C245.979 63.3253 245.656 63.2 245.229 63.2C244.941 63.2 244.672 63.272 244.421 63.416C244.176 63.5547 243.947 63.7467 243.733 63.992V70H241.757ZM261.102 61.792V70H259.118V61.792H261.102ZM261.374 59.4C261.374 59.5707 261.339 59.7307 261.27 59.88C261.201 60.0293 261.107 60.16 260.99 60.272C260.878 60.384 260.745 60.4747 260.59 60.544C260.435 60.608 260.27 60.64 260.094 60.64C259.923 60.64 259.761 60.608 259.606 60.544C259.457 60.4747 259.326 60.384 259.214 60.272C259.102 60.16 259.011 60.0293 258.942 59.88C258.878 59.7307 258.846 59.5707 258.846 59.4C258.846 59.224 258.878 59.0587 258.942 58.904C259.011 58.7493 259.102 58.616 259.214 58.504C259.326 58.392 259.457 58.304 259.606 58.24C259.761 58.1707 259.923 58.136 260.094 58.136C260.27 58.136 260.435 58.1707 260.59 58.24C260.745 58.304 260.878 58.392 260.99 58.504C261.107 58.616 261.201 58.7493 261.27 58.904C261.339 59.0587 261.374 59.224 261.374 59.4ZM264.965 62.8C265.13 62.6347 265.303 62.4827 265.485 62.344C265.671 62.2 265.866 62.08 266.069 61.984C266.277 61.8827 266.498 61.8053 266.733 61.752C266.967 61.6933 267.223 61.664 267.501 61.664C267.949 61.664 268.346 61.7413 268.693 61.896C269.039 62.0453 269.327 62.2587 269.557 62.536C269.791 62.808 269.967 63.136 270.085 63.52C270.207 63.8987 270.269 64.3173 270.269 64.776V70H268.293V64.776C268.293 64.2747 268.178 63.888 267.949 63.616C267.719 63.3387 267.37 63.2 266.901 63.2C266.559 63.2 266.239 63.2773 265.941 63.432C265.642 63.5867 265.359 63.7973 265.093 64.064V70H263.117V61.792H264.325C264.581 61.792 264.749 61.912 264.829 62.152L264.965 62.8ZM278.775 70.128C278.06 70.128 277.511 69.928 277.127 69.528C276.748 69.1227 276.559 68.5653 276.559 67.856V63.272H275.719C275.612 63.272 275.521 63.2373 275.447 63.168C275.372 63.0987 275.335 62.9947 275.335 62.856V62.072L276.655 61.856L277.071 59.616C277.097 59.5093 277.148 59.4267 277.223 59.368C277.297 59.3093 277.393 59.28 277.511 59.28H278.535V61.864H280.727V63.272H278.535V67.72C278.535 67.976 278.596 68.176 278.719 68.32C278.847 68.464 279.02 68.536 279.239 68.536C279.361 68.536 279.463 68.5227 279.543 68.496C279.628 68.464 279.7 68.432 279.759 68.4C279.823 68.368 279.879 68.3387 279.927 68.312C279.975 68.28 280.023 68.264 280.071 68.264C280.129 68.264 280.177 68.28 280.215 68.312C280.252 68.3387 280.292 68.3813 280.335 68.44L280.927 69.4C280.639 69.64 280.308 69.8213 279.935 69.944C279.561 70.0667 279.175 70.128 278.775 70.128ZM283.968 62.672C284.288 62.3733 284.64 62.1307 285.024 61.944C285.408 61.7573 285.858 61.664 286.376 61.664C286.824 61.664 287.221 61.7413 287.568 61.896C287.914 62.0453 288.202 62.2587 288.432 62.536C288.666 62.808 288.842 63.136 288.96 63.52C289.082 63.8987 289.144 64.3173 289.144 64.776V70H287.168V64.776C287.168 64.2747 287.053 63.888 286.824 63.616C286.594 63.3387 286.245 63.2 285.776 63.2C285.434 63.2 285.114 63.2773 284.816 63.432C284.517 63.5867 284.234 63.7973 283.968 64.064V70H281.992V58.112H283.968V62.672ZM296.311 64.952C296.311 64.696 296.274 64.456 296.199 64.232C296.13 64.0027 296.023 63.8027 295.879 63.632C295.735 63.4613 295.551 63.328 295.327 63.232C295.108 63.1307 294.852 63.08 294.559 63.08C293.988 63.08 293.538 63.2427 293.207 63.568C292.882 63.8933 292.674 64.3547 292.583 64.952H296.311ZM292.543 66.144C292.575 66.5653 292.65 66.9307 292.767 67.24C292.884 67.544 293.039 67.7973 293.231 68C293.423 68.1973 293.65 68.3467 293.911 68.448C294.178 68.544 294.471 68.592 294.791 68.592C295.111 68.592 295.386 68.5547 295.615 68.48C295.85 68.4053 296.052 68.3227 296.223 68.232C296.399 68.1413 296.551 68.0587 296.679 67.984C296.812 67.9093 296.94 67.872 297.063 67.872C297.228 67.872 297.351 67.9333 297.431 68.056L297.999 68.776C297.78 69.032 297.535 69.248 297.263 69.424C296.991 69.5947 296.706 69.7333 296.407 69.84C296.114 69.9413 295.812 70.0133 295.503 70.056C295.199 70.0987 294.903 70.12 294.615 70.12C294.044 70.12 293.514 70.0267 293.023 69.84C292.532 69.648 292.106 69.368 291.743 69C291.38 68.6267 291.095 68.168 290.887 67.624C290.679 67.0747 290.575 66.44 290.575 65.72C290.575 65.16 290.666 64.6347 290.847 64.144C291.028 63.648 291.287 63.2187 291.623 62.856C291.964 62.488 292.378 62.1973 292.863 61.984C293.354 61.7707 293.906 61.664 294.519 61.664C295.036 61.664 295.514 61.7467 295.951 61.912C296.388 62.0773 296.764 62.32 297.079 62.64C297.394 62.9547 297.639 63.344 297.815 63.808C297.996 64.2667 298.087 64.792 298.087 65.384C298.087 65.6827 298.055 65.8853 297.991 65.992C297.927 66.0933 297.804 66.144 297.623 66.144H292.543ZM305.46 58.112V70H303.484V58.112H305.46ZM309.477 61.792V70H307.493V61.792H309.477ZM309.749 59.4C309.749 59.5707 309.714 59.7307 309.645 59.88C309.576 60.0293 309.482 60.16 309.365 60.272C309.253 60.384 309.12 60.4747 308.965 60.544C308.81 60.608 308.645 60.64 308.469 60.64C308.298 60.64 308.136 60.608 307.981 60.544C307.832 60.4747 307.701 60.384 307.589 60.272C307.477 60.16 307.386 60.0293 307.317 59.88C307.253 59.7307 307.221 59.5707 307.221 59.4C307.221 59.224 307.253 59.0587 307.317 58.904C307.386 58.7493 307.477 58.616 307.589 58.504C307.701 58.392 307.832 58.304 307.981 58.24C308.136 58.1707 308.298 58.136 308.469 58.136C308.645 58.136 308.81 58.1707 308.965 58.24C309.12 58.304 309.253 58.392 309.365 58.504C309.482 58.616 309.576 58.7493 309.645 58.904C309.714 59.0587 309.749 59.224 309.749 59.4ZM316.5 63.392C316.446 63.4773 316.39 63.5387 316.332 63.576C316.273 63.608 316.198 63.624 316.108 63.624C316.012 63.624 315.908 63.5973 315.796 63.544C315.689 63.4907 315.564 63.432 315.42 63.368C315.276 63.2987 315.11 63.2373 314.924 63.184C314.742 63.1307 314.526 63.104 314.276 63.104C313.886 63.104 313.58 63.1867 313.356 63.352C313.137 63.5173 313.028 63.7333 313.028 64C313.028 64.176 313.084 64.3253 313.196 64.448C313.313 64.5653 313.465 64.6693 313.652 64.76C313.844 64.8507 314.06 64.9333 314.3 65.008C314.54 65.0773 314.782 65.1547 315.028 65.24C315.278 65.3253 315.524 65.424 315.764 65.536C316.004 65.6427 316.217 65.7813 316.404 65.952C316.596 66.1173 316.748 66.3173 316.86 66.552C316.977 66.7867 317.036 67.0693 317.036 67.4C317.036 67.7947 316.964 68.16 316.82 68.496C316.681 68.8267 316.473 69.1147 316.196 69.36C315.918 69.6 315.574 69.7893 315.164 69.928C314.758 70.0613 314.289 70.128 313.756 70.128C313.473 70.128 313.196 70.1013 312.924 70.048C312.657 70 312.398 69.9307 312.148 69.84C311.902 69.7493 311.673 69.6427 311.46 69.52C311.252 69.3973 311.068 69.264 310.908 69.12L311.364 68.368C311.422 68.2773 311.492 68.208 311.572 68.16C311.652 68.112 311.753 68.088 311.876 68.088C311.998 68.088 312.113 68.1227 312.22 68.192C312.332 68.2613 312.46 68.336 312.604 68.416C312.748 68.496 312.916 68.5707 313.108 68.64C313.305 68.7093 313.553 68.744 313.852 68.744C314.086 68.744 314.286 68.7173 314.452 68.664C314.622 68.6053 314.761 68.5307 314.868 68.44C314.98 68.3493 315.06 68.2453 315.108 68.128C315.161 68.0053 315.188 67.88 315.188 67.752C315.188 67.56 315.129 67.4027 315.012 67.28C314.9 67.1573 314.748 67.0507 314.556 66.96C314.369 66.8693 314.153 66.7893 313.908 66.72C313.668 66.6453 313.42 66.5653 313.164 66.48C312.913 66.3947 312.665 66.296 312.42 66.184C312.18 66.0667 311.964 65.92 311.772 65.744C311.585 65.568 311.433 65.352 311.316 65.096C311.204 64.84 311.148 64.5307 311.148 64.168C311.148 63.832 311.214 63.512 311.348 63.208C311.481 62.904 311.676 62.64 311.932 62.416C312.193 62.1867 312.516 62.0053 312.9 61.872C313.289 61.7333 313.737 61.664 314.244 61.664C314.809 61.664 315.324 61.7573 315.788 61.944C316.252 62.1307 316.638 62.376 316.948 62.68L316.5 63.392ZM321.259 70.128C320.544 70.128 319.995 69.928 319.611 69.528C319.232 69.1227 319.043 68.5653 319.043 67.856V63.272H318.203C318.096 63.272 318.006 63.2373 317.931 63.168C317.856 63.0987 317.819 62.9947 317.819 62.856V62.072L319.139 61.856L319.555 59.616C319.582 59.5093 319.632 59.4267 319.707 59.368C319.782 59.3093 319.878 59.28 319.995 59.28H321.019V61.864H323.211V63.272H321.019V67.72C321.019 67.976 321.08 68.176 321.203 68.32C321.331 68.464 321.504 68.536 321.723 68.536C321.846 68.536 321.947 68.5227 322.027 68.496C322.112 68.464 322.184 68.432 322.243 68.4C322.307 68.368 322.363 68.3387 322.411 68.312C322.459 68.28 322.507 68.264 322.555 68.264C322.614 68.264 322.662 68.28 322.699 68.312C322.736 68.3387 322.776 68.3813 322.819 68.44L323.411 69.4C323.123 69.64 322.792 69.8213 322.419 69.944C322.046 70.0667 321.659 70.128 321.259 70.128ZM324.188 68.912C324.188 68.7467 324.217 68.5893 324.276 68.44C324.34 68.2907 324.425 68.1627 324.532 68.056C324.639 67.9493 324.767 67.864 324.916 67.8C325.065 67.736 325.225 67.704 325.396 67.704C325.567 67.704 325.724 67.736 325.868 67.8C326.017 67.864 326.145 67.9493 326.252 68.056C326.364 68.1627 326.452 68.2907 326.516 68.44C326.58 68.5893 326.612 68.7467 326.612 68.912C326.612 69.0827 326.58 69.2427 326.516 69.392C326.452 69.536 326.364 69.6613 326.252 69.768C326.145 69.8747 326.017 69.9573 325.868 70.016C325.724 70.08 325.567 70.112 325.396 70.112C325.225 70.112 325.065 70.08 324.916 70.016C324.767 69.9573 324.639 69.8747 324.532 69.768C324.425 69.6613 324.34 69.536 324.276 69.392C324.217 69.2427 324.188 69.0827 324.188 68.912Z" fill="#808080"/>
</svg>
