<svg width="422" height="93" viewBox="0 0 422 93" fill="none" xmlns="http://www.w3.org/2000/svg">
<rect x="0.5" y="0.5" width="421" height="92" rx="9.5" fill="white"/>
<rect x="0.5" y="0.5" width="421" height="92" rx="9.5" stroke="#E4E4E4"/>
<path d="M21 39.5C21.5523 39.5 22 39.0523 22 38.5C22 37.9477 21.5523 37.5 21 37.5C20.4477 37.5 20 37.9477 20 38.5C20 39.0523 20.4477 39.5 21 39.5Z" stroke="black" stroke-width="2" stroke-linecap="round" stroke-linejoin="round"/>
<path d="M29 39.5C29.5523 39.5 30 39.0523 30 38.5C30 37.9477 29.5523 37.5 29 37.5C28.4477 37.5 28 37.9477 28 38.5C28 39.0523 28.4477 39.5 29 39.5Z" stroke="black" stroke-width="2" stroke-linecap="round" stroke-linejoin="round"/>
<path d="M21 47.5C21.5523 47.5 22 47.0523 22 46.5C22 45.9477 21.5523 45.5 21 45.5C20.4477 45.5 20 45.9477 20 46.5C20 47.0523 20.4477 47.5 21 47.5Z" stroke="black" stroke-width="2" stroke-linecap="round" stroke-linejoin="round"/>
<path d="M29 47.5C29.5523 47.5 30 47.0523 30 46.5C30 45.9477 29.5523 45.5 29 45.5C28.4477 45.5 28 45.9477 28 46.5C28 47.0523 28.4477 47.5 29 47.5Z" stroke="black" stroke-width="2" stroke-linecap="round" stroke-linejoin="round"/>
<path d="M21 55.5C21.5523 55.5 22 55.0523 22 54.5C22 53.9477 21.5523 53.5 21 53.5C20.4477 53.5 20 53.9477 20 54.5C20 55.0523 20.4477 55.5 21 55.5Z" stroke="black" stroke-width="2" stroke-linecap="round" stroke-linejoin="round"/>
<path d="M29 55.5C29.5523 55.5 30 55.0523 30 54.5C30 53.9477 29.5523 53.5 29 53.5C28.4477 53.5 28 53.9477 28 54.5C28 55.0523 28.4477 55.5 29 55.5Z" stroke="black" stroke-width="2" stroke-linecap="round" stroke-linejoin="round"/>
<path d="M63.592 40.447V43H53.8515V26.371H56.945V40.447H63.592ZM68.2962 31.201V43H65.4442V31.201H68.2962ZM68.6872 27.7625C68.6872 28.0078 68.6374 28.2378 68.5377 28.4525C68.4381 28.6672 68.3039 28.855 68.1352 29.016C67.9742 29.177 67.7826 29.3073 67.5602 29.407C67.3379 29.499 67.1002 29.545 66.8472 29.545C66.6019 29.545 66.3681 29.499 66.1457 29.407C65.9311 29.3073 65.7432 29.177 65.5822 29.016C65.4212 28.855 65.2909 28.6672 65.1912 28.4525C65.0992 28.2378 65.0532 28.0078 65.0532 27.7625C65.0532 27.5095 65.0992 27.2718 65.1912 27.0495C65.2909 26.8272 65.4212 26.6355 65.5822 26.4745C65.7432 26.3135 65.9311 26.187 66.1457 26.095C66.3681 25.9953 66.6019 25.9455 66.8472 25.9455C67.1002 25.9455 67.3379 25.9953 67.5602 26.095C67.7826 26.187 67.9742 26.3135 68.1352 26.4745C68.3039 26.6355 68.4381 26.8272 68.5377 27.0495C68.6374 27.2718 68.6872 27.5095 68.6872 27.7625ZM78.3911 33.501C78.3144 33.6237 78.2339 33.7118 78.1496 33.7655C78.0652 33.8115 77.9579 33.8345 77.8276 33.8345C77.6896 33.8345 77.5401 33.7962 77.3791 33.7195C77.2257 33.6428 77.0456 33.5585 76.8386 33.4665C76.6316 33.3668 76.3939 33.2787 76.1256 33.202C75.8649 33.1253 75.5544 33.087 75.1941 33.087C74.6344 33.087 74.1936 33.2058 73.8716 33.4435C73.5572 33.6812 73.4001 33.9917 73.4001 34.375C73.4001 34.628 73.4806 34.8427 73.6416 35.019C73.8102 35.1877 74.0287 35.3372 74.2971 35.4675C74.5731 35.5978 74.8836 35.7167 75.2286 35.824C75.5736 35.9237 75.9224 36.0348 76.2751 36.1575C76.6354 36.2802 76.9881 36.422 77.3331 36.583C77.6781 36.7363 77.9847 36.9357 78.2531 37.181C78.5291 37.4187 78.7476 37.7062 78.9086 38.0435C79.0772 38.3808 79.1616 38.7872 79.1616 39.2625C79.1616 39.8298 79.0581 40.355 78.8511 40.838C78.6517 41.3133 78.3527 41.7273 77.9541 42.08C77.5554 42.425 77.0609 42.6972 76.4706 42.8965C75.8879 43.0882 75.2132 43.184 74.4466 43.184C74.0402 43.184 73.6416 43.1457 73.2506 43.069C72.8672 43 72.4954 42.9003 72.1351 42.77C71.7824 42.6397 71.4527 42.4863 71.1461 42.31C70.8471 42.1337 70.5826 41.942 70.3526 41.735L71.0081 40.654C71.0924 40.5237 71.1921 40.424 71.3071 40.355C71.4221 40.286 71.5677 40.2515 71.7441 40.2515C71.9204 40.2515 72.0852 40.3013 72.2386 40.401C72.3996 40.5007 72.5836 40.608 72.7906 40.723C72.9976 40.838 73.2391 40.9453 73.5151 41.045C73.7987 41.1447 74.1552 41.1945 74.5846 41.1945C74.9219 41.1945 75.2094 41.1562 75.4471 41.0795C75.6924 40.9952 75.8917 40.8878 76.0451 40.7575C76.2061 40.6272 76.3211 40.4777 76.3901 40.309C76.4667 40.1327 76.5051 39.9525 76.5051 39.7685C76.5051 39.4925 76.4207 39.2663 76.2521 39.09C76.0911 38.9137 75.8726 38.7603 75.5966 38.63C75.3282 38.4997 75.0177 38.3847 74.6651 38.285C74.3201 38.1777 73.9636 38.0627 73.5956 37.94C73.2352 37.8173 72.8787 37.6755 72.5261 37.5145C72.1811 37.3458 71.8706 37.135 71.5946 36.882C71.3262 36.629 71.1077 36.3185 70.9391 35.9505C70.7781 35.5825 70.6976 35.1378 70.6976 34.6165C70.6976 34.1335 70.7934 33.6735 70.9851 33.2365C71.1767 32.7995 71.4566 32.42 71.8246 32.098C72.2002 31.7683 72.6641 31.5077 73.2161 31.316C73.7757 31.1167 74.4197 31.017 75.1481 31.017C75.9607 31.017 76.7006 31.1512 77.3676 31.4195C78.0346 31.6878 78.5904 32.0405 79.0351 32.4775L78.3911 33.501ZM85.2325 43.184C84.2052 43.184 83.4155 42.8965 82.8635 42.3215C82.3192 41.7388 82.047 40.9377 82.047 39.918V33.3285H80.8395C80.6862 33.3285 80.5558 33.2787 80.4485 33.179C80.3412 33.0793 80.2875 32.9298 80.2875 32.7305V31.6035L82.185 31.293L82.783 28.073C82.8213 27.9197 82.8942 27.8008 83.0015 27.7165C83.1088 27.6322 83.2468 27.59 83.4155 27.59H84.8875V31.3045H88.0385V33.3285H84.8875V39.7225C84.8875 40.0905 84.9757 40.378 85.152 40.585C85.336 40.792 85.5852 40.8955 85.8995 40.8955C86.0758 40.8955 86.2215 40.8763 86.3365 40.838C86.4592 40.792 86.5627 40.746 86.647 40.7C86.739 40.654 86.8195 40.6118 86.8885 40.5735C86.9575 40.5275 87.0265 40.5045 87.0955 40.5045C87.1798 40.5045 87.2488 40.5275 87.3025 40.5735C87.3562 40.6118 87.4137 40.6732 87.475 40.7575L88.326 42.1375C87.912 42.4825 87.4367 42.7432 86.9 42.9195C86.3633 43.0958 85.8075 43.184 85.2325 43.184ZM99.0034 43H95.8984V26.371H99.0034V43ZM105.897 43.184C104.869 43.184 104.08 42.8965 103.528 42.3215C102.983 41.7388 102.711 40.9377 102.711 39.918V33.3285H101.504C101.35 33.3285 101.22 33.2787 101.113 33.179C101.005 33.0793 100.952 32.9298 100.952 32.7305V31.6035L102.849 31.293L103.447 28.073C103.485 27.9197 103.558 27.8008 103.666 27.7165C103.773 27.6322 103.911 27.59 104.08 27.59H105.552V31.3045H108.703V33.3285H105.552V39.7225C105.552 40.0905 105.64 40.378 105.816 40.585C106 40.792 106.249 40.8955 106.564 40.8955C106.74 40.8955 106.886 40.8763 107.001 40.838C107.123 40.792 107.227 40.746 107.311 40.7C107.403 40.654 107.484 40.6118 107.553 40.5735C107.622 40.5275 107.691 40.5045 107.76 40.5045C107.844 40.5045 107.913 40.5275 107.967 40.5735C108.02 40.6118 108.078 40.6732 108.139 40.7575L108.99 42.1375C108.576 42.4825 108.101 42.7432 107.564 42.9195C107.027 43.0958 106.472 43.184 105.897 43.184ZM118.033 35.7435C118.033 35.3755 117.979 35.0305 117.872 34.7085C117.772 34.3788 117.619 34.0913 117.412 33.846C117.205 33.6007 116.94 33.409 116.618 33.271C116.304 33.1253 115.936 33.0525 115.514 33.0525C114.694 33.0525 114.046 33.2863 113.571 33.754C113.103 34.2217 112.804 34.8848 112.674 35.7435H118.033ZM112.616 37.457C112.662 38.0627 112.77 38.5878 112.938 39.0325C113.107 39.4695 113.329 39.8337 113.605 40.125C113.881 40.4087 114.207 40.6233 114.583 40.769C114.966 40.907 115.388 40.976 115.848 40.976C116.308 40.976 116.703 40.9223 117.032 40.815C117.37 40.7077 117.661 40.5888 117.906 40.4585C118.159 40.3282 118.378 40.2093 118.562 40.102C118.753 39.9947 118.937 39.941 119.114 39.941C119.351 39.941 119.528 40.0292 119.643 40.2055L120.459 41.2405C120.145 41.6085 119.792 41.919 119.401 42.172C119.01 42.4173 118.6 42.6167 118.171 42.77C117.749 42.9157 117.316 43.0192 116.871 43.0805C116.434 43.1418 116.009 43.1725 115.595 43.1725C114.774 43.1725 114.012 43.0383 113.306 42.77C112.601 42.494 111.988 42.0915 111.466 41.5625C110.945 41.0258 110.535 40.3665 110.236 39.5845C109.937 38.7948 109.787 37.8825 109.787 36.8475C109.787 36.0425 109.918 35.2873 110.178 34.582C110.439 33.869 110.811 33.2518 111.294 32.7305C111.784 32.2015 112.379 31.7837 113.076 31.477C113.782 31.1703 114.575 31.017 115.457 31.017C116.2 31.017 116.887 31.1358 117.515 31.3735C118.144 31.6112 118.684 31.96 119.137 32.42C119.589 32.8723 119.942 33.432 120.195 34.099C120.455 34.7583 120.586 35.5135 120.586 36.3645C120.586 36.7938 120.54 37.0852 120.448 37.2385C120.356 37.3842 120.179 37.457 119.919 37.457H112.616ZM122.717 43V31.201H124.454C124.822 31.201 125.063 31.3735 125.178 31.7185L125.362 32.5925C125.569 32.3625 125.784 32.1517 126.006 31.96C126.236 31.7683 126.478 31.6035 126.731 31.4655C126.992 31.3275 127.268 31.2202 127.559 31.1435C127.858 31.0592 128.184 31.017 128.536 31.017C129.28 31.017 129.89 31.2202 130.365 31.6265C130.848 32.0252 131.208 32.558 131.446 33.225C131.63 32.834 131.86 32.5005 132.136 32.2245C132.412 31.9408 132.715 31.7108 133.044 31.5345C133.374 31.3582 133.723 31.2278 134.091 31.1435C134.467 31.0592 134.842 31.017 135.218 31.017C135.87 31.017 136.448 31.1167 136.954 31.316C137.46 31.5153 137.886 31.8067 138.231 32.19C138.576 32.5733 138.837 33.041 139.013 33.593C139.197 34.145 139.289 34.7775 139.289 35.4905V43H136.448V35.4905C136.448 34.7392 136.284 34.1757 135.954 33.8C135.624 33.4167 135.141 33.225 134.505 33.225C134.214 33.225 133.941 33.2748 133.688 33.3745C133.443 33.4742 133.225 33.6198 133.033 33.8115C132.849 33.9955 132.703 34.2293 132.596 34.513C132.489 34.7967 132.435 35.1225 132.435 35.4905V43H129.583V35.4905C129.583 34.7008 129.422 34.1258 129.1 33.7655C128.786 33.4052 128.322 33.225 127.708 33.225C127.294 33.225 126.907 33.3285 126.547 33.5355C126.194 33.7348 125.865 34.0108 125.558 34.3635V43H122.717ZM154.367 36.7325V31.293C154.367 30.7793 154.401 30.212 154.47 29.591L149.307 36.7325H154.367ZM158.932 36.7325V38.377C158.932 38.5303 158.882 38.6645 158.783 38.7795C158.683 38.8868 158.541 38.9405 158.357 38.9405H156.839V43H154.367V38.9405H147.352C147.16 38.9405 146.991 38.883 146.846 38.768C146.7 38.6453 146.608 38.4958 146.57 38.3195L146.271 36.882L154.148 26.3595H156.839V36.7325H158.932Z" fill="black"/>
<path d="M63.56 64.216C63.56 65.064 63.4187 65.8427 63.136 66.552C62.8533 67.2613 62.456 67.872 61.944 68.384C61.432 68.896 60.816 69.2933 60.096 69.576C59.376 69.8587 58.576 70 57.696 70H53.288V58.432H57.696C58.576 58.432 59.376 58.576 60.096 58.864C60.816 59.1467 61.432 59.544 61.944 60.056C62.456 60.5627 62.8533 61.1707 63.136 61.88C63.4187 62.5893 63.56 63.368 63.56 64.216ZM61.352 64.216C61.352 63.5813 61.2667 63.0133 61.096 62.512C60.9307 62.0053 60.688 61.5787 60.368 61.232C60.0533 60.88 59.6693 60.6107 59.216 60.424C58.768 60.2373 58.2613 60.144 57.696 60.144H55.448V68.288H57.696C58.2613 68.288 58.768 68.1947 59.216 68.008C59.6693 67.8213 60.0533 67.5547 60.368 67.208C60.688 66.856 60.9307 66.4293 61.096 65.928C61.2667 65.4213 61.352 64.8507 61.352 64.216ZM70.3265 64.952C70.3265 64.696 70.2892 64.456 70.2145 64.232C70.1452 64.0027 70.0385 63.8027 69.8945 63.632C69.7505 63.4613 69.5665 63.328 69.3425 63.232C69.1238 63.1307 68.8678 63.08 68.5745 63.08C68.0038 63.08 67.5532 63.2427 67.2225 63.568C66.8972 63.8933 66.6892 64.3547 66.5985 64.952H70.3265ZM66.5585 66.144C66.5905 66.5653 66.6652 66.9307 66.7825 67.24C66.8998 67.544 67.0545 67.7973 67.2465 68C67.4385 68.1973 67.6652 68.3467 67.9265 68.448C68.1932 68.544 68.4865 68.592 68.8065 68.592C69.1265 68.592 69.4012 68.5547 69.6305 68.48C69.8652 68.4053 70.0678 68.3227 70.2385 68.232C70.4145 68.1413 70.5665 68.0587 70.6945 67.984C70.8278 67.9093 70.9558 67.872 71.0785 67.872C71.2438 67.872 71.3665 67.9333 71.4465 68.056L72.0145 68.776C71.7958 69.032 71.5505 69.248 71.2785 69.424C71.0065 69.5947 70.7212 69.7333 70.4225 69.84C70.1292 69.9413 69.8278 70.0133 69.5185 70.056C69.2145 70.0987 68.9185 70.12 68.6305 70.12C68.0598 70.12 67.5292 70.0267 67.0385 69.84C66.5478 69.648 66.1212 69.368 65.7585 69C65.3958 68.6267 65.1105 68.168 64.9025 67.624C64.6945 67.0747 64.5905 66.44 64.5905 65.72C64.5905 65.16 64.6812 64.6347 64.8625 64.144C65.0438 63.648 65.3025 63.2187 65.6385 62.856C65.9798 62.488 66.3932 62.1973 66.8785 61.984C67.3692 61.7707 67.9212 61.664 68.5345 61.664C69.0518 61.664 69.5292 61.7467 69.9665 61.912C70.4038 62.0773 70.7798 62.32 71.0945 62.64C71.4092 62.9547 71.6545 63.344 71.8305 63.808C72.0118 64.2667 72.1025 64.792 72.1025 65.384C72.1025 65.6827 72.0705 65.8853 72.0065 65.992C71.9425 66.0933 71.8198 66.144 71.6385 66.144H66.5585ZM78.5934 63.392C78.54 63.4773 78.484 63.5387 78.4254 63.576C78.3667 63.608 78.292 63.624 78.2014 63.624C78.1054 63.624 78.0014 63.5973 77.8894 63.544C77.7827 63.4907 77.6574 63.432 77.5134 63.368C77.3694 63.2987 77.204 63.2373 77.0174 63.184C76.836 63.1307 76.62 63.104 76.3694 63.104C75.98 63.104 75.6734 63.1867 75.4494 63.352C75.2307 63.5173 75.1214 63.7333 75.1214 64C75.1214 64.176 75.1774 64.3253 75.2894 64.448C75.4067 64.5653 75.5587 64.6693 75.7454 64.76C75.9374 64.8507 76.1534 64.9333 76.3934 65.008C76.6334 65.0773 76.876 65.1547 77.1214 65.24C77.372 65.3253 77.6174 65.424 77.8574 65.536C78.0974 65.6427 78.3107 65.7813 78.4974 65.952C78.6894 66.1173 78.8414 66.3173 78.9534 66.552C79.0707 66.7867 79.1294 67.0693 79.1294 67.4C79.1294 67.7947 79.0574 68.16 78.9134 68.496C78.7747 68.8267 78.5667 69.1147 78.2894 69.36C78.012 69.6 77.668 69.7893 77.2574 69.928C76.852 70.0613 76.3827 70.128 75.8494 70.128C75.5667 70.128 75.2894 70.1013 75.0174 70.048C74.7507 70 74.492 69.9307 74.2414 69.84C73.996 69.7493 73.7667 69.6427 73.5534 69.52C73.3454 69.3973 73.1614 69.264 73.0014 69.12L73.4574 68.368C73.516 68.2773 73.5854 68.208 73.6654 68.16C73.7454 68.112 73.8467 68.088 73.9694 68.088C74.092 68.088 74.2067 68.1227 74.3134 68.192C74.4254 68.2613 74.5534 68.336 74.6974 68.416C74.8414 68.496 75.0094 68.5707 75.2014 68.64C75.3987 68.7093 75.6467 68.744 75.9454 68.744C76.18 68.744 76.38 68.7173 76.5454 68.664C76.716 68.6053 76.8547 68.5307 76.9614 68.44C77.0734 68.3493 77.1534 68.2453 77.2014 68.128C77.2547 68.0053 77.2814 67.88 77.2814 67.752C77.2814 67.56 77.2227 67.4027 77.1054 67.28C76.9934 67.1573 76.8414 67.0507 76.6494 66.96C76.4627 66.8693 76.2467 66.7893 76.0014 66.72C75.7614 66.6453 75.5134 66.5653 75.2574 66.48C75.0067 66.3947 74.7587 66.296 74.5134 66.184C74.2734 66.0667 74.0574 65.92 73.8654 65.744C73.6787 65.568 73.5267 65.352 73.4094 65.096C73.2974 64.84 73.2414 64.5307 73.2414 64.168C73.2414 63.832 73.308 63.512 73.4414 63.208C73.5747 62.904 73.7694 62.64 74.0254 62.416C74.2867 62.1867 74.6094 62.0053 74.9934 61.872C75.3827 61.7333 75.8307 61.664 76.3374 61.664C76.9027 61.664 77.4174 61.7573 77.8814 61.944C78.3454 62.1307 78.732 62.376 79.0414 62.68L78.5934 63.392ZM86.4966 63.528C86.438 63.6027 86.3793 63.6613 86.3206 63.704C86.2673 63.7467 86.1873 63.768 86.0806 63.768C85.9793 63.768 85.8806 63.7387 85.7846 63.68C85.6886 63.616 85.574 63.5467 85.4406 63.472C85.3073 63.392 85.1473 63.3227 84.9606 63.264C84.7793 63.2 84.5526 63.168 84.2806 63.168C83.934 63.168 83.63 63.232 83.3686 63.36C83.1073 63.4827 82.8886 63.6613 82.7126 63.896C82.542 64.1307 82.414 64.416 82.3286 64.752C82.2433 65.0827 82.2006 65.4587 82.2006 65.88C82.2006 66.3173 82.246 66.7067 82.3366 67.048C82.4326 67.3893 82.5686 67.6773 82.7446 67.912C82.9206 68.1413 83.134 68.3173 83.3846 68.44C83.6353 68.5573 83.918 68.616 84.2326 68.616C84.5473 68.616 84.8006 68.5787 84.9926 68.504C85.19 68.424 85.3553 68.3387 85.4886 68.248C85.622 68.152 85.7366 68.0667 85.8326 67.992C85.934 67.912 86.046 67.872 86.1686 67.872C86.3286 67.872 86.4486 67.9333 86.5286 68.056L87.0966 68.776C86.878 69.032 86.6406 69.248 86.3846 69.424C86.1286 69.5947 85.862 69.7333 85.5846 69.84C85.3126 69.9413 85.03 70.0133 84.7366 70.056C84.4486 70.0987 84.1606 70.12 83.8726 70.12C83.366 70.12 82.8886 70.0267 82.4406 69.84C81.9926 69.648 81.6006 69.3707 81.2646 69.008C80.9286 68.6453 80.662 68.2027 80.4646 67.68C80.2726 67.152 80.1766 66.552 80.1766 65.88C80.1766 65.2773 80.262 64.72 80.4326 64.208C80.6086 63.6907 80.8646 63.2453 81.2006 62.872C81.5366 62.4933 81.9526 62.1973 82.4486 61.984C82.9446 61.7707 83.5153 61.664 84.1606 61.664C84.774 61.664 85.31 61.7627 85.7686 61.96C86.2326 62.1573 86.6486 62.44 87.0166 62.808L86.4966 63.528ZM90.1994 63.216C90.4554 62.7253 90.7594 62.3413 91.1114 62.064C91.4634 61.7813 91.8794 61.64 92.3594 61.64C92.738 61.64 93.042 61.7227 93.2714 61.888L93.1434 63.368C93.1167 63.464 93.0767 63.5333 93.0234 63.576C92.9754 63.6133 92.9087 63.632 92.8234 63.632C92.7434 63.632 92.6234 63.6187 92.4634 63.592C92.3087 63.5653 92.1567 63.552 92.0074 63.552C91.7887 63.552 91.594 63.584 91.4234 63.648C91.2527 63.712 91.098 63.8053 90.9594 63.928C90.826 64.0453 90.706 64.1893 90.5994 64.36C90.498 64.5307 90.402 64.7253 90.3114 64.944V70H88.3354V61.792H89.4954C89.698 61.792 89.8394 61.8293 89.9194 61.904C89.9994 61.9733 90.0527 62.1013 90.0794 62.288L90.1994 63.216ZM96.3521 61.792V70H94.3681V61.792H96.3521ZM96.6241 59.4C96.6241 59.5707 96.5895 59.7307 96.5201 59.88C96.4508 60.0293 96.3575 60.16 96.2401 60.272C96.1281 60.384 95.9948 60.4747 95.8401 60.544C95.6855 60.608 95.5201 60.64 95.3441 60.64C95.1735 60.64 95.0108 60.608 94.8561 60.544C94.7068 60.4747 94.5761 60.384 94.4641 60.272C94.3521 60.16 94.2615 60.0293 94.1921 59.88C94.1281 59.7307 94.0961 59.5707 94.0961 59.4C94.0961 59.224 94.1281 59.0587 94.1921 58.904C94.2615 58.7493 94.3521 58.616 94.4641 58.504C94.5761 58.392 94.7068 58.304 94.8561 58.24C95.0108 58.1707 95.1735 58.136 95.3441 58.136C95.5201 58.136 95.6855 58.1707 95.8401 58.24C95.9948 58.304 96.1281 58.392 96.2401 58.504C96.3575 58.616 96.4508 58.7493 96.5201 58.904C96.5895 59.0587 96.6241 59.224 96.6241 59.4ZM100.343 67.872C100.567 68.144 100.809 68.336 101.071 68.448C101.337 68.56 101.625 68.616 101.935 68.616C102.233 68.616 102.503 68.56 102.743 68.448C102.983 68.336 103.185 68.1653 103.351 67.936C103.521 67.7067 103.652 67.4187 103.743 67.072C103.833 66.72 103.879 66.3067 103.879 65.832C103.879 65.352 103.839 64.9467 103.759 64.616C103.684 64.28 103.575 64.008 103.431 63.8C103.287 63.592 103.111 63.44 102.903 63.344C102.7 63.248 102.468 63.2 102.207 63.2C101.796 63.2 101.447 63.288 101.159 63.464C100.871 63.6347 100.599 63.8773 100.343 64.192V67.872ZM100.239 62.912C100.575 62.5333 100.956 62.2267 101.383 61.992C101.809 61.7573 102.311 61.64 102.887 61.64C103.335 61.64 103.743 61.7333 104.111 61.92C104.484 62.1067 104.804 62.3787 105.071 62.736C105.343 63.088 105.551 63.5253 105.695 64.048C105.844 64.5653 105.919 65.16 105.919 65.832C105.919 66.4453 105.836 67.0133 105.671 67.536C105.505 68.0587 105.268 68.512 104.959 68.896C104.655 69.28 104.284 69.5813 103.847 69.8C103.415 70.0133 102.929 70.12 102.391 70.12C101.932 70.12 101.54 70.0507 101.215 69.912C100.889 69.768 100.599 69.5707 100.343 69.32V72.68H98.3666V61.792H99.5746C99.8306 61.792 99.9986 61.912 100.079 62.152L100.239 62.912ZM115.631 70H113.655V63.272H109.847V67.72C109.847 67.976 109.908 68.176 110.031 68.32C110.159 68.464 110.332 68.536 110.551 68.536C110.674 68.536 110.775 68.5227 110.855 68.496C110.94 68.464 111.012 68.432 111.071 68.4C111.135 68.368 111.191 68.3387 111.239 68.312C111.287 68.28 111.335 68.264 111.383 68.264C111.442 68.264 111.49 68.28 111.527 68.312C111.564 68.3387 111.604 68.3813 111.647 68.44L112.239 69.4C111.951 69.64 111.62 69.8213 111.247 69.944C110.874 70.0667 110.487 70.128 110.087 70.128C109.372 70.128 108.823 69.928 108.439 69.528C108.06 69.1227 107.871 68.5653 107.871 67.856V63.272H107.031C106.924 63.272 106.834 63.2373 106.759 63.168C106.684 63.0987 106.647 62.9947 106.647 62.856V62.072L107.967 61.848L108.383 59.616C108.41 59.5093 108.46 59.4267 108.535 59.368C108.61 59.3093 108.706 59.28 108.823 59.28H109.847V61.864H115.631V70ZM115.975 59.368C115.975 59.5387 115.94 59.7013 115.871 59.856C115.802 60.0053 115.708 60.136 115.591 60.248C115.479 60.36 115.343 60.4507 115.183 60.52C115.028 60.584 114.863 60.616 114.687 60.616C114.516 60.616 114.356 60.584 114.207 60.52C114.058 60.4507 113.927 60.36 113.815 60.248C113.703 60.136 113.612 60.0053 113.543 59.856C113.479 59.7013 113.447 59.5387 113.447 59.368C113.447 59.192 113.479 59.0293 113.543 58.88C113.612 58.7253 113.703 58.592 113.815 58.48C113.927 58.3627 114.058 58.272 114.207 58.208C114.356 58.1387 114.516 58.104 114.687 58.104C114.863 58.104 115.028 58.1387 115.183 58.208C115.343 58.272 115.479 58.3627 115.591 58.48C115.708 58.592 115.802 58.7253 115.871 58.88C115.94 59.0293 115.975 59.192 115.975 59.368ZM121.28 61.664C121.888 61.664 122.44 61.7627 122.936 61.96C123.437 62.1573 123.864 62.4373 124.216 62.8C124.573 63.1627 124.848 63.6053 125.04 64.128C125.232 64.6507 125.328 65.2347 125.328 65.88C125.328 66.5307 125.232 67.1173 125.04 67.64C124.848 68.1627 124.573 68.608 124.216 68.976C123.864 69.344 123.437 69.6267 122.936 69.824C122.44 70.0213 121.888 70.12 121.28 70.12C120.667 70.12 120.109 70.0213 119.608 69.824C119.107 69.6267 118.677 69.344 118.32 68.976C117.968 68.608 117.693 68.1627 117.496 67.64C117.304 67.1173 117.208 66.5307 117.208 65.88C117.208 65.2347 117.304 64.6507 117.496 64.128C117.693 63.6053 117.968 63.1627 118.32 62.8C118.677 62.4373 119.107 62.1573 119.608 61.96C120.109 61.7627 120.667 61.664 121.28 61.664ZM121.28 68.6C121.963 68.6 122.467 68.3707 122.792 67.912C123.123 67.4533 123.288 66.7813 123.288 65.896C123.288 65.0107 123.123 64.336 122.792 63.872C122.467 63.408 121.963 63.176 121.28 63.176C120.587 63.176 120.072 63.4107 119.736 63.88C119.405 64.344 119.24 65.016 119.24 65.896C119.24 66.776 119.405 67.448 119.736 67.912C120.072 68.3707 120.587 68.6 121.28 68.6ZM128.683 62.8C128.849 62.6347 129.022 62.4827 129.203 62.344C129.39 62.2 129.585 62.08 129.787 61.984C129.995 61.8827 130.217 61.8053 130.451 61.752C130.686 61.6933 130.942 61.664 131.219 61.664C131.667 61.664 132.065 61.7413 132.411 61.896C132.758 62.0453 133.046 62.2587 133.275 62.536C133.51 62.808 133.686 63.136 133.803 63.52C133.926 63.8987 133.987 64.3173 133.987 64.776V70H132.011V64.776C132.011 64.2747 131.897 63.888 131.667 63.616C131.438 63.3387 131.089 63.2 130.619 63.2C130.278 63.2 129.958 63.2773 129.659 63.432C129.361 63.5867 129.078 63.7973 128.811 64.064V70H126.835V61.792H128.043C128.299 61.792 128.467 61.912 128.547 62.152L128.683 62.8ZM143.389 61.664C143.997 61.664 144.549 61.7627 145.045 61.96C145.547 62.1573 145.973 62.4373 146.325 62.8C146.683 63.1627 146.957 63.6053 147.149 64.128C147.341 64.6507 147.437 65.2347 147.437 65.88C147.437 66.5307 147.341 67.1173 147.149 67.64C146.957 68.1627 146.683 68.608 146.325 68.976C145.973 69.344 145.547 69.6267 145.045 69.824C144.549 70.0213 143.997 70.12 143.389 70.12C142.776 70.12 142.219 70.0213 141.717 69.824C141.216 69.6267 140.787 69.344 140.429 68.976C140.077 68.608 139.803 68.1627 139.605 67.64C139.413 67.1173 139.317 66.5307 139.317 65.88C139.317 65.2347 139.413 64.6507 139.605 64.128C139.803 63.6053 140.077 63.1627 140.429 62.8C140.787 62.4373 141.216 62.1573 141.717 61.96C142.219 61.7627 142.776 61.664 143.389 61.664ZM143.389 68.6C144.072 68.6 144.576 68.3707 144.901 67.912C145.232 67.4533 145.397 66.7813 145.397 65.896C145.397 65.0107 145.232 64.336 144.901 63.872C144.576 63.408 144.072 63.176 143.389 63.176C142.696 63.176 142.181 63.4107 141.845 63.88C141.515 64.344 141.349 65.016 141.349 65.896C141.349 66.776 141.515 67.448 141.845 67.912C142.181 68.3707 142.696 68.6 143.389 68.6ZM149.318 70V63.28L148.606 63.168C148.451 63.136 148.326 63.0827 148.23 63.008C148.139 62.928 148.094 62.816 148.094 62.672V61.864H149.318V61.256C149.318 60.7867 149.387 60.3653 149.526 59.992C149.67 59.6187 149.872 59.3013 150.134 59.04C150.4 58.7787 150.723 58.5787 151.102 58.44C151.48 58.3013 151.907 58.232 152.382 58.232C152.76 58.232 153.112 58.2827 153.438 58.384L153.398 59.376C153.392 59.4507 153.371 59.512 153.334 59.56C153.296 59.6027 153.246 59.6373 153.182 59.664C153.123 59.6853 153.054 59.7013 152.974 59.712C152.894 59.7173 152.808 59.72 152.718 59.72C152.483 59.72 152.272 59.7467 152.086 59.8C151.904 59.848 151.75 59.936 151.622 60.064C151.494 60.1867 151.395 60.352 151.326 60.56C151.262 60.7627 151.23 61.016 151.23 61.32V61.864H153.366V63.272H151.294V70H149.318ZM160.806 70.128C160.091 70.128 159.542 69.928 159.158 69.528C158.779 69.1227 158.59 68.5653 158.59 67.856V63.272H157.75C157.643 63.272 157.552 63.2373 157.478 63.168C157.403 63.0987 157.366 62.9947 157.366 62.856V62.072L158.686 61.856L159.102 59.616C159.128 59.5093 159.179 59.4267 159.254 59.368C159.328 59.3093 159.424 59.28 159.542 59.28H160.566V61.864H162.758V63.272H160.566V67.72C160.566 67.976 160.627 68.176 160.75 68.32C160.878 68.464 161.051 68.536 161.27 68.536C161.392 68.536 161.494 68.5227 161.574 68.496C161.659 68.464 161.731 68.432 161.79 68.4C161.854 68.368 161.91 68.3387 161.958 68.312C162.006 68.28 162.054 68.264 162.102 68.264C162.16 68.264 162.208 68.28 162.246 68.312C162.283 68.3387 162.323 68.3813 162.366 68.44L162.958 69.4C162.67 69.64 162.339 69.8213 161.966 69.944C161.592 70.0667 161.206 70.128 160.806 70.128ZM165.999 62.672C166.319 62.3733 166.671 62.1307 167.055 61.944C167.439 61.7573 167.89 61.664 168.407 61.664C168.855 61.664 169.252 61.7413 169.599 61.896C169.946 62.0453 170.234 62.2587 170.463 62.536C170.698 62.808 170.874 63.136 170.991 63.52C171.114 63.8987 171.175 64.3173 171.175 64.776V70H169.199V64.776C169.199 64.2747 169.084 63.888 168.855 63.616C168.626 63.3387 168.276 63.2 167.807 63.2C167.466 63.2 167.146 63.2773 166.847 63.432C166.548 63.5867 166.266 63.7973 165.999 64.064V70H164.023V58.112H165.999V62.672ZM178.342 64.952C178.342 64.696 178.305 64.456 178.23 64.232C178.161 64.0027 178.054 63.8027 177.91 63.632C177.766 63.4613 177.582 63.328 177.358 63.232C177.139 63.1307 176.883 63.08 176.59 63.08C176.019 63.08 175.569 63.2427 175.238 63.568C174.913 63.8933 174.705 64.3547 174.614 64.952H178.342ZM174.574 66.144C174.606 66.5653 174.681 66.9307 174.798 67.24C174.915 67.544 175.07 67.7973 175.262 68C175.454 68.1973 175.681 68.3467 175.942 68.448C176.209 68.544 176.502 68.592 176.822 68.592C177.142 68.592 177.417 68.5547 177.646 68.48C177.881 68.4053 178.083 68.3227 178.254 68.232C178.43 68.1413 178.582 68.0587 178.71 67.984C178.843 67.9093 178.971 67.872 179.094 67.872C179.259 67.872 179.382 67.9333 179.462 68.056L180.03 68.776C179.811 69.032 179.566 69.248 179.294 69.424C179.022 69.5947 178.737 69.7333 178.438 69.84C178.145 69.9413 177.843 70.0133 177.534 70.056C177.23 70.0987 176.934 70.12 176.646 70.12C176.075 70.12 175.545 70.0267 175.054 69.84C174.563 69.648 174.137 69.368 173.774 69C173.411 68.6267 173.126 68.168 172.918 67.624C172.71 67.0747 172.606 66.44 172.606 65.72C172.606 65.16 172.697 64.6347 172.878 64.144C173.059 63.648 173.318 63.2187 173.654 62.856C173.995 62.488 174.409 62.1973 174.894 61.984C175.385 61.7707 175.937 61.664 176.55 61.664C177.067 61.664 177.545 61.7467 177.982 61.912C178.419 62.0773 178.795 62.32 179.11 62.64C179.425 62.9547 179.67 63.344 179.846 63.808C180.027 64.2667 180.118 64.792 180.118 65.384C180.118 65.6827 180.086 65.8853 180.022 65.992C179.958 66.0933 179.835 66.144 179.654 66.144H174.574ZM186.068 70V63.28L185.356 63.168C185.201 63.136 185.076 63.0827 184.98 63.008C184.889 62.928 184.844 62.816 184.844 62.672V61.864H186.068V61.256C186.068 60.7867 186.137 60.3653 186.276 59.992C186.42 59.6187 186.622 59.3013 186.884 59.04C187.15 58.7787 187.473 58.5787 187.852 58.44C188.23 58.3013 188.657 58.232 189.132 58.232C189.51 58.232 189.862 58.2827 190.188 58.384L190.148 59.376C190.142 59.4507 190.121 59.512 190.084 59.56C190.046 59.6027 189.996 59.6373 189.932 59.664C189.873 59.6853 189.804 59.7013 189.724 59.712C189.644 59.7173 189.558 59.72 189.468 59.72C189.233 59.72 189.022 59.7467 188.836 59.8C188.654 59.848 188.5 59.936 188.372 60.064C188.244 60.1867 188.145 60.352 188.076 60.56C188.012 60.7627 187.98 61.016 187.98 61.32V61.864H190.116V63.272H188.044V70H186.068ZM194.639 61.664C195.247 61.664 195.799 61.7627 196.295 61.96C196.797 62.1573 197.223 62.4373 197.575 62.8C197.933 63.1627 198.207 63.6053 198.399 64.128C198.591 64.6507 198.687 65.2347 198.687 65.88C198.687 66.5307 198.591 67.1173 198.399 67.64C198.207 68.1627 197.933 68.608 197.575 68.976C197.223 69.344 196.797 69.6267 196.295 69.824C195.799 70.0213 195.247 70.12 194.639 70.12C194.026 70.12 193.469 70.0213 192.967 69.824C192.466 69.6267 192.037 69.344 191.679 68.976C191.327 68.608 191.053 68.1627 190.855 67.64C190.663 67.1173 190.567 66.5307 190.567 65.88C190.567 65.2347 190.663 64.6507 190.855 64.128C191.053 63.6053 191.327 63.1627 191.679 62.8C192.037 62.4373 192.466 62.1573 192.967 61.96C193.469 61.7627 194.026 61.664 194.639 61.664ZM194.639 68.6C195.322 68.6 195.826 68.3707 196.151 67.912C196.482 67.4533 196.647 66.7813 196.647 65.896C196.647 65.0107 196.482 64.336 196.151 63.872C195.826 63.408 195.322 63.176 194.639 63.176C193.946 63.176 193.431 63.4107 193.095 63.88C192.765 64.344 192.599 65.016 192.599 65.896C192.599 66.776 192.765 67.448 193.095 67.912C193.431 68.3707 193.946 68.6 194.639 68.6ZM207.267 61.792V70H206.059C205.797 70 205.632 69.88 205.563 69.64L205.427 68.984C205.091 69.3253 204.72 69.6027 204.315 69.816C203.909 70.024 203.432 70.128 202.883 70.128C202.435 70.128 202.037 70.0533 201.691 69.904C201.349 69.7493 201.061 69.5333 200.827 69.256C200.592 68.9787 200.413 68.6507 200.291 68.272C200.173 67.888 200.115 67.4667 200.115 67.008V61.792H202.091V67.008C202.091 67.5093 202.205 67.8987 202.435 68.176C202.669 68.448 203.019 68.584 203.483 68.584C203.824 68.584 204.144 68.5093 204.443 68.36C204.741 68.2053 205.024 67.9947 205.291 67.728V61.792H207.267ZM211.09 63.216C211.346 62.7253 211.65 62.3413 212.002 62.064C212.354 61.7813 212.77 61.64 213.25 61.64C213.629 61.64 213.933 61.7227 214.162 61.888L214.034 63.368C214.007 63.464 213.967 63.5333 213.914 63.576C213.866 63.6133 213.799 63.632 213.714 63.632C213.634 63.632 213.514 63.6187 213.354 63.592C213.199 63.5653 213.047 63.552 212.898 63.552C212.679 63.552 212.485 63.584 212.314 63.648C212.143 63.712 211.989 63.8053 211.85 63.928C211.717 64.0453 211.597 64.1893 211.49 64.36C211.389 64.5307 211.293 64.7253 211.202 64.944V70H209.226V61.792H210.386C210.589 61.792 210.73 61.8293 210.81 61.904C210.89 61.9733 210.943 62.1013 210.97 62.288L211.09 63.216ZM217.931 70.128C217.216 70.128 216.667 69.928 216.283 69.528C215.904 69.1227 215.715 68.5653 215.715 67.856V63.272H214.875C214.768 63.272 214.677 63.2373 214.603 63.168C214.528 63.0987 214.491 62.9947 214.491 62.856V62.072L215.811 61.856L216.227 59.616C216.253 59.5093 216.304 59.4267 216.379 59.368C216.453 59.3093 216.549 59.28 216.667 59.28H217.691V61.864H219.883V63.272H217.691V67.72C217.691 67.976 217.752 68.176 217.875 68.32C218.003 68.464 218.176 68.536 218.395 68.536C218.517 68.536 218.619 68.5227 218.699 68.496C218.784 68.464 218.856 68.432 218.915 68.4C218.979 68.368 219.035 68.3387 219.083 68.312C219.131 68.28 219.179 68.264 219.227 68.264C219.285 68.264 219.333 68.28 219.371 68.312C219.408 68.3387 219.448 68.3813 219.491 68.44L220.083 69.4C219.795 69.64 219.464 69.8213 219.091 69.944C218.717 70.0667 218.331 70.128 217.931 70.128ZM223.124 62.672C223.444 62.3733 223.796 62.1307 224.18 61.944C224.564 61.7573 225.015 61.664 225.532 61.664C225.98 61.664 226.377 61.7413 226.724 61.896C227.071 62.0453 227.359 62.2587 227.588 62.536C227.823 62.808 227.999 63.136 228.116 63.52C228.239 63.8987 228.3 64.3173 228.3 64.776V70H226.324V64.776C226.324 64.2747 226.209 63.888 225.98 63.616C225.751 63.3387 225.401 63.2 224.932 63.2C224.591 63.2 224.271 63.2773 223.972 63.432C223.673 63.5867 223.391 63.7973 223.124 64.064V70H221.148V58.112H223.124V62.672ZM236.118 61.792V70H234.134V61.792H236.118ZM236.39 59.4C236.39 59.5707 236.355 59.7307 236.286 59.88C236.216 60.0293 236.123 60.16 236.006 60.272C235.894 60.384 235.76 60.4747 235.606 60.544C235.451 60.608 235.286 60.64 235.11 60.64C234.939 60.64 234.776 60.608 234.622 60.544C234.472 60.4747 234.342 60.384 234.23 60.272C234.118 60.16 234.027 60.0293 233.958 59.88C233.894 59.7307 233.862 59.5707 233.862 59.4C233.862 59.224 233.894 59.0587 233.958 58.904C234.027 58.7493 234.118 58.616 234.23 58.504C234.342 58.392 234.472 58.304 234.622 58.24C234.776 58.1707 234.939 58.136 235.11 58.136C235.286 58.136 235.451 58.1707 235.606 58.24C235.76 58.304 235.894 58.392 236.006 58.504C236.123 58.616 236.216 58.7493 236.286 58.904C236.355 59.0587 236.39 59.224 236.39 59.4ZM240.868 70.128C240.154 70.128 239.604 69.928 239.22 69.528C238.842 69.1227 238.652 68.5653 238.652 67.856V63.272H237.812C237.706 63.272 237.615 63.2373 237.54 63.168C237.466 63.0987 237.428 62.9947 237.428 62.856V62.072L238.748 61.856L239.164 59.616C239.191 59.5093 239.242 59.4267 239.316 59.368C239.391 59.3093 239.487 59.28 239.604 59.28H240.628V61.864H242.82V63.272H240.628V67.72C240.628 67.976 240.69 68.176 240.812 68.32C240.94 68.464 241.114 68.536 241.332 68.536C241.455 68.536 241.556 68.5227 241.636 68.496C241.722 68.464 241.794 68.432 241.852 68.4C241.916 68.368 241.972 68.3387 242.02 68.312C242.068 68.28 242.116 68.264 242.164 68.264C242.223 68.264 242.271 68.28 242.308 68.312C242.346 68.3387 242.386 68.3813 242.428 68.44L243.02 69.4C242.732 69.64 242.402 69.8213 242.028 69.944C241.655 70.0667 241.268 70.128 240.868 70.128ZM249.311 64.952C249.311 64.696 249.274 64.456 249.199 64.232C249.13 64.0027 249.023 63.8027 248.879 63.632C248.735 63.4613 248.551 63.328 248.327 63.232C248.108 63.1307 247.852 63.08 247.559 63.08C246.988 63.08 246.538 63.2427 246.207 63.568C245.882 63.8933 245.674 64.3547 245.583 64.952H249.311ZM245.543 66.144C245.575 66.5653 245.65 66.9307 245.767 67.24C245.884 67.544 246.039 67.7973 246.231 68C246.423 68.1973 246.65 68.3467 246.911 68.448C247.178 68.544 247.471 68.592 247.791 68.592C248.111 68.592 248.386 68.5547 248.615 68.48C248.85 68.4053 249.052 68.3227 249.223 68.232C249.399 68.1413 249.551 68.0587 249.679 67.984C249.812 67.9093 249.94 67.872 250.063 67.872C250.228 67.872 250.351 67.9333 250.431 68.056L250.999 68.776C250.78 69.032 250.535 69.248 250.263 69.424C249.991 69.5947 249.706 69.7333 249.407 69.84C249.114 69.9413 248.812 70.0133 248.503 70.056C248.199 70.0987 247.903 70.12 247.615 70.12C247.044 70.12 246.514 70.0267 246.023 69.84C245.532 69.648 245.106 69.368 244.743 69C244.38 68.6267 244.095 68.168 243.887 67.624C243.679 67.0747 243.575 66.44 243.575 65.72C243.575 65.16 243.666 64.6347 243.847 64.144C244.028 63.648 244.287 63.2187 244.623 62.856C244.964 62.488 245.378 62.1973 245.863 61.984C246.354 61.7707 246.906 61.664 247.519 61.664C248.036 61.664 248.514 61.7467 248.951 61.912C249.388 62.0773 249.764 62.32 250.079 62.64C250.394 62.9547 250.639 63.344 250.815 63.808C250.996 64.2667 251.087 64.792 251.087 65.384C251.087 65.6827 251.055 65.8853 250.991 65.992C250.927 66.0933 250.804 66.144 250.623 66.144H245.543ZM252.57 70V61.792H253.778C254.034 61.792 254.202 61.912 254.282 62.152L254.41 62.76C254.554 62.6 254.703 62.4533 254.858 62.32C255.018 62.1867 255.186 62.072 255.362 61.976C255.543 61.88 255.735 61.8053 255.938 61.752C256.146 61.6933 256.372 61.664 256.618 61.664C257.135 61.664 257.559 61.8053 257.89 62.088C258.226 62.3653 258.476 62.736 258.642 63.2C258.77 62.928 258.93 62.696 259.122 62.504C259.314 62.3067 259.524 62.1467 259.754 62.024C259.983 61.9013 260.226 61.8107 260.482 61.752C260.743 61.6933 261.004 61.664 261.266 61.664C261.719 61.664 262.122 61.7333 262.474 61.872C262.826 62.0107 263.122 62.2133 263.362 62.48C263.602 62.7467 263.783 63.072 263.906 63.456C264.034 63.84 264.098 64.28 264.098 64.776V70H262.122V64.776C262.122 64.2533 262.007 63.8613 261.778 63.6C261.548 63.3333 261.212 63.2 260.77 63.2C260.567 63.2 260.378 63.2347 260.202 63.304C260.031 63.3733 259.879 63.4747 259.746 63.608C259.618 63.736 259.516 63.8987 259.442 64.096C259.367 64.2933 259.33 64.52 259.33 64.776V70H257.346V64.776C257.346 64.2267 257.234 63.8267 257.01 63.576C256.791 63.3253 256.468 63.2 256.042 63.2C255.754 63.2 255.484 63.272 255.234 63.416C254.988 63.5547 254.759 63.7467 254.546 63.992V70H252.57ZM271.915 61.792V70H269.931V61.792H271.915ZM272.187 59.4C272.187 59.5707 272.152 59.7307 272.083 59.88C272.013 60.0293 271.92 60.16 271.803 60.272C271.691 60.384 271.557 60.4747 271.403 60.544C271.248 60.608 271.083 60.64 270.907 60.64C270.736 60.64 270.573 60.608 270.419 60.544C270.269 60.4747 270.139 60.384 270.027 60.272C269.915 60.16 269.824 60.0293 269.755 59.88C269.691 59.7307 269.659 59.5707 269.659 59.4C269.659 59.224 269.691 59.0587 269.755 58.904C269.824 58.7493 269.915 58.616 270.027 58.504C270.139 58.392 270.269 58.304 270.419 58.24C270.573 58.1707 270.736 58.136 270.907 58.136C271.083 58.136 271.248 58.1707 271.403 58.24C271.557 58.304 271.691 58.392 271.803 58.504C271.92 58.616 272.013 58.7493 272.083 58.904C272.152 59.0587 272.187 59.224 272.187 59.4ZM275.777 62.8C275.942 62.6347 276.116 62.4827 276.297 62.344C276.484 62.2 276.678 62.08 276.881 61.984C277.089 61.8827 277.31 61.8053 277.545 61.752C277.78 61.6933 278.036 61.664 278.313 61.664C278.761 61.664 279.158 61.7413 279.505 61.896C279.852 62.0453 280.14 62.2587 280.369 62.536C280.604 62.808 280.78 63.136 280.897 63.52C281.02 63.8987 281.081 64.3173 281.081 64.776V70H279.105V64.776C279.105 64.2747 278.99 63.888 278.761 63.616C278.532 63.3387 278.182 63.2 277.713 63.2C277.372 63.2 277.052 63.2773 276.753 63.432C276.454 63.5867 276.172 63.7973 275.905 64.064V70H273.929V61.792H275.137C275.393 61.792 275.561 61.912 275.641 62.152L275.777 62.8ZM289.587 70.128C288.872 70.128 288.323 69.928 287.939 69.528C287.56 69.1227 287.371 68.5653 287.371 67.856V63.272H286.531C286.424 63.272 286.334 63.2373 286.259 63.168C286.184 63.0987 286.147 62.9947 286.147 62.856V62.072L287.467 61.856L287.883 59.616C287.91 59.5093 287.96 59.4267 288.035 59.368C288.11 59.3093 288.206 59.28 288.323 59.28H289.347V61.864H291.539V63.272H289.347V67.72C289.347 67.976 289.408 68.176 289.531 68.32C289.659 68.464 289.832 68.536 290.051 68.536C290.174 68.536 290.275 68.5227 290.355 68.496C290.44 68.464 290.512 68.432 290.571 68.4C290.635 68.368 290.691 68.3387 290.739 68.312C290.787 68.28 290.835 68.264 290.883 68.264C290.942 68.264 290.99 68.28 291.027 68.312C291.064 68.3387 291.104 68.3813 291.147 68.44L291.739 69.4C291.451 69.64 291.12 69.8213 290.747 69.944C290.374 70.0667 289.987 70.128 289.587 70.128ZM294.78 62.672C295.1 62.3733 295.452 62.1307 295.836 61.944C296.22 61.7573 296.671 61.664 297.188 61.664C297.636 61.664 298.033 61.7413 298.38 61.896C298.727 62.0453 299.015 62.2587 299.244 62.536C299.479 62.808 299.655 63.136 299.772 63.52C299.895 63.8987 299.956 64.3173 299.956 64.776V70H297.98V64.776C297.98 64.2747 297.865 63.888 297.636 63.616C297.407 63.3387 297.057 63.2 296.588 63.2C296.247 63.2 295.927 63.2773 295.628 63.432C295.329 63.5867 295.047 63.7973 294.78 64.064V70H292.804V58.112H294.78V62.672ZM307.123 64.952C307.123 64.696 307.086 64.456 307.011 64.232C306.942 64.0027 306.835 63.8027 306.691 63.632C306.547 63.4613 306.363 63.328 306.139 63.232C305.921 63.1307 305.665 63.08 305.371 63.08C304.801 63.08 304.35 63.2427 304.019 63.568C303.694 63.8933 303.486 64.3547 303.395 64.952H307.123ZM303.355 66.144C303.387 66.5653 303.462 66.9307 303.579 67.24C303.697 67.544 303.851 67.7973 304.043 68C304.235 68.1973 304.462 68.3467 304.723 68.448C304.99 68.544 305.283 68.592 305.603 68.592C305.923 68.592 306.198 68.5547 306.427 68.48C306.662 68.4053 306.865 68.3227 307.035 68.232C307.211 68.1413 307.363 68.0587 307.491 67.984C307.625 67.9093 307.753 67.872 307.875 67.872C308.041 67.872 308.163 67.9333 308.243 68.056L308.811 68.776C308.593 69.032 308.347 69.248 308.075 69.424C307.803 69.5947 307.518 69.7333 307.219 69.84C306.926 69.9413 306.625 70.0133 306.315 70.056C306.011 70.0987 305.715 70.12 305.427 70.12C304.857 70.12 304.326 70.0267 303.835 69.84C303.345 69.648 302.918 69.368 302.555 69C302.193 68.6267 301.907 68.168 301.699 67.624C301.491 67.0747 301.387 66.44 301.387 65.72C301.387 65.16 301.478 64.6347 301.659 64.144C301.841 63.648 302.099 63.2187 302.435 62.856C302.777 62.488 303.19 62.1973 303.675 61.984C304.166 61.7707 304.718 61.664 305.331 61.664C305.849 61.664 306.326 61.7467 306.763 61.912C307.201 62.0773 307.577 62.32 307.891 62.64C308.206 62.9547 308.451 63.344 308.627 63.808C308.809 64.2667 308.899 64.792 308.899 65.384C308.899 65.6827 308.867 65.8853 308.803 65.992C308.739 66.0933 308.617 66.144 308.435 66.144H303.355ZM316.273 58.112V70H314.297V58.112H316.273ZM320.29 61.792V70H318.306V61.792H320.29ZM320.562 59.4C320.562 59.5707 320.527 59.7307 320.458 59.88C320.388 60.0293 320.295 60.16 320.178 60.272C320.066 60.384 319.932 60.4747 319.778 60.544C319.623 60.608 319.458 60.64 319.282 60.64C319.111 60.64 318.948 60.608 318.794 60.544C318.644 60.4747 318.514 60.384 318.402 60.272C318.29 60.16 318.199 60.0293 318.13 59.88C318.066 59.7307 318.034 59.5707 318.034 59.4C318.034 59.224 318.066 59.0587 318.13 58.904C318.199 58.7493 318.29 58.616 318.402 58.504C318.514 58.392 318.644 58.304 318.794 58.24C318.948 58.1707 319.111 58.136 319.282 58.136C319.458 58.136 319.623 58.1707 319.778 58.24C319.932 58.304 320.066 58.392 320.178 58.504C320.295 58.616 320.388 58.7493 320.458 58.904C320.527 59.0587 320.562 59.224 320.562 59.4ZM327.312 63.392C327.259 63.4773 327.203 63.5387 327.144 63.576C327.085 63.608 327.011 63.624 326.92 63.624C326.824 63.624 326.72 63.5973 326.608 63.544C326.501 63.4907 326.376 63.432 326.232 63.368C326.088 63.2987 325.923 63.2373 325.736 63.184C325.555 63.1307 325.339 63.104 325.088 63.104C324.699 63.104 324.392 63.1867 324.168 63.352C323.949 63.5173 323.84 63.7333 323.84 64C323.84 64.176 323.896 64.3253 324.008 64.448C324.125 64.5653 324.277 64.6693 324.464 64.76C324.656 64.8507 324.872 64.9333 325.112 65.008C325.352 65.0773 325.595 65.1547 325.84 65.24C326.091 65.3253 326.336 65.424 326.576 65.536C326.816 65.6427 327.029 65.7813 327.216 65.952C327.408 66.1173 327.56 66.3173 327.672 66.552C327.789 66.7867 327.848 67.0693 327.848 67.4C327.848 67.7947 327.776 68.16 327.632 68.496C327.493 68.8267 327.285 69.1147 327.008 69.36C326.731 69.6 326.387 69.7893 325.976 69.928C325.571 70.0613 325.101 70.128 324.568 70.128C324.285 70.128 324.008 70.1013 323.736 70.048C323.469 70 323.211 69.9307 322.96 69.84C322.715 69.7493 322.485 69.6427 322.272 69.52C322.064 69.3973 321.88 69.264 321.72 69.12L322.176 68.368C322.235 68.2773 322.304 68.208 322.384 68.16C322.464 68.112 322.565 68.088 322.688 68.088C322.811 68.088 322.925 68.1227 323.032 68.192C323.144 68.2613 323.272 68.336 323.416 68.416C323.56 68.496 323.728 68.5707 323.92 68.64C324.117 68.7093 324.365 68.744 324.664 68.744C324.899 68.744 325.099 68.7173 325.264 68.664C325.435 68.6053 325.573 68.5307 325.68 68.44C325.792 68.3493 325.872 68.2453 325.92 68.128C325.973 68.0053 326 67.88 326 67.752C326 67.56 325.941 67.4027 325.824 67.28C325.712 67.1573 325.56 67.0507 325.368 66.96C325.181 66.8693 324.965 66.7893 324.72 66.72C324.48 66.6453 324.232 66.5653 323.976 66.48C323.725 66.3947 323.477 66.296 323.232 66.184C322.992 66.0667 322.776 65.92 322.584 65.744C322.397 65.568 322.245 65.352 322.128 65.096C322.016 64.84 321.96 64.5307 321.96 64.168C321.96 63.832 322.027 63.512 322.16 63.208C322.293 62.904 322.488 62.64 322.744 62.416C323.005 62.1867 323.328 62.0053 323.712 61.872C324.101 61.7333 324.549 61.664 325.056 61.664C325.621 61.664 326.136 61.7573 326.6 61.944C327.064 62.1307 327.451 62.376 327.76 62.68L327.312 63.392ZM332.071 70.128C331.357 70.128 330.807 69.928 330.423 69.528C330.045 69.1227 329.855 68.5653 329.855 67.856V63.272H329.015C328.909 63.272 328.818 63.2373 328.743 63.168C328.669 63.0987 328.631 62.9947 328.631 62.856V62.072L329.951 61.856L330.367 59.616C330.394 59.5093 330.445 59.4267 330.519 59.368C330.594 59.3093 330.69 59.28 330.807 59.28H331.831V61.864H334.023V63.272H331.831V67.72C331.831 67.976 331.893 68.176 332.015 68.32C332.143 68.464 332.317 68.536 332.535 68.536C332.658 68.536 332.759 68.5227 332.839 68.496C332.925 68.464 332.997 68.432 333.055 68.4C333.119 68.368 333.175 68.3387 333.223 68.312C333.271 68.28 333.319 68.264 333.367 68.264C333.426 68.264 333.474 68.28 333.511 68.312C333.549 68.3387 333.589 68.3813 333.631 68.44L334.223 69.4C333.935 69.64 333.605 69.8213 333.231 69.944C332.858 70.0667 332.471 70.128 332.071 70.128ZM335.001 68.912C335.001 68.7467 335.03 68.5893 335.089 68.44C335.153 68.2907 335.238 68.1627 335.345 68.056C335.451 67.9493 335.579 67.864 335.729 67.8C335.878 67.736 336.038 67.704 336.209 67.704C336.379 67.704 336.537 67.736 336.681 67.8C336.83 67.864 336.958 67.9493 337.065 68.056C337.177 68.1627 337.265 68.2907 337.329 68.44C337.393 68.5893 337.425 68.7467 337.425 68.912C337.425 69.0827 337.393 69.2427 337.329 69.392C337.265 69.536 337.177 69.6613 337.065 69.768C336.958 69.8747 336.83 69.9573 336.681 70.016C336.537 70.08 336.379 70.112 336.209 70.112C336.038 70.112 335.878 70.08 335.729 70.016C335.579 69.9573 335.451 69.8747 335.345 69.768C335.238 69.6613 335.153 69.536 335.089 69.392C335.03 69.2427 335.001 69.0827 335.001 68.912Z" fill="#808080"/>
</svg>
