<svg width="422" height="93" viewBox="0 0 422 93" fill="none" xmlns="http://www.w3.org/2000/svg">
<rect x="0.5" y="0.5" width="421" height="92" rx="9.5" fill="white"/>
<rect x="0.5" y="0.5" width="421" height="92" rx="9.5" stroke="#E4E4E4"/>
<path d="M21 39.5C21.5523 39.5 22 39.0523 22 38.5C22 37.9477 21.5523 37.5 21 37.5C20.4477 37.5 20 37.9477 20 38.5C20 39.0523 20.4477 39.5 21 39.5Z" stroke="black" stroke-width="2" stroke-linecap="round" stroke-linejoin="round"/>
<path d="M29 39.5C29.5523 39.5 30 39.0523 30 38.5C30 37.9477 29.5523 37.5 29 37.5C28.4477 37.5 28 37.9477 28 38.5C28 39.0523 28.4477 39.5 29 39.5Z" stroke="black" stroke-width="2" stroke-linecap="round" stroke-linejoin="round"/>
<path d="M21 47.5C21.5523 47.5 22 47.0523 22 46.5C22 45.9477 21.5523 45.5 21 45.5C20.4477 45.5 20 45.9477 20 46.5C20 47.0523 20.4477 47.5 21 47.5Z" stroke="black" stroke-width="2" stroke-linecap="round" stroke-linejoin="round"/>
<path d="M29 47.5C29.5523 47.5 30 47.0523 30 46.5C30 45.9477 29.5523 45.5 29 45.5C28.4477 45.5 28 45.9477 28 46.5C28 47.0523 28.4477 47.5 29 47.5Z" stroke="black" stroke-width="2" stroke-linecap="round" stroke-linejoin="round"/>
<path d="M21 55.5C21.5523 55.5 22 55.0523 22 54.5C22 53.9477 21.5523 53.5 21 53.5C20.4477 53.5 20 53.9477 20 54.5C20 55.0523 20.4477 55.5 21 55.5Z" stroke="black" stroke-width="2" stroke-linecap="round" stroke-linejoin="round"/>
<path d="M29 55.5C29.5523 55.5 30 55.0523 30 54.5C30 53.9477 29.5523 53.5 29 53.5C28.4477 53.5 28 53.9477 28 54.5C28 55.0523 28.4477 55.5 29 55.5Z" stroke="black" stroke-width="2" stroke-linecap="round" stroke-linejoin="round"/>
<path d="M63.592 40.447V43H53.8515V26.371H56.945V40.447H63.592ZM68.2962 31.201V43H65.4442V31.201H68.2962ZM68.6872 27.7625C68.6872 28.0078 68.6374 28.2378 68.5377 28.4525C68.4381 28.6672 68.3039 28.855 68.1352 29.016C67.9742 29.177 67.7826 29.3073 67.5602 29.407C67.3379 29.499 67.1002 29.545 66.8472 29.545C66.6019 29.545 66.3681 29.499 66.1457 29.407C65.9311 29.3073 65.7432 29.177 65.5822 29.016C65.4212 28.855 65.2909 28.6672 65.1912 28.4525C65.0992 28.2378 65.0532 28.0078 65.0532 27.7625C65.0532 27.5095 65.0992 27.2718 65.1912 27.0495C65.2909 26.8272 65.4212 26.6355 65.5822 26.4745C65.7432 26.3135 65.9311 26.187 66.1457 26.095C66.3681 25.9953 66.6019 25.9455 66.8472 25.9455C67.1002 25.9455 67.3379 25.9953 67.5602 26.095C67.7826 26.187 67.9742 26.3135 68.1352 26.4745C68.3039 26.6355 68.4381 26.8272 68.5377 27.0495C68.6374 27.2718 68.6872 27.5095 68.6872 27.7625ZM78.3911 33.501C78.3144 33.6237 78.2339 33.7118 78.1496 33.7655C78.0652 33.8115 77.9579 33.8345 77.8276 33.8345C77.6896 33.8345 77.5401 33.7962 77.3791 33.7195C77.2257 33.6428 77.0456 33.5585 76.8386 33.4665C76.6316 33.3668 76.3939 33.2787 76.1256 33.202C75.8649 33.1253 75.5544 33.087 75.1941 33.087C74.6344 33.087 74.1936 33.2058 73.8716 33.4435C73.5572 33.6812 73.4001 33.9917 73.4001 34.375C73.4001 34.628 73.4806 34.8427 73.6416 35.019C73.8102 35.1877 74.0287 35.3372 74.2971 35.4675C74.5731 35.5978 74.8836 35.7167 75.2286 35.824C75.5736 35.9237 75.9224 36.0348 76.2751 36.1575C76.6354 36.2802 76.9881 36.422 77.3331 36.583C77.6781 36.7363 77.9847 36.9357 78.2531 37.181C78.5291 37.4187 78.7476 37.7062 78.9086 38.0435C79.0772 38.3808 79.1616 38.7872 79.1616 39.2625C79.1616 39.8298 79.0581 40.355 78.8511 40.838C78.6517 41.3133 78.3527 41.7273 77.9541 42.08C77.5554 42.425 77.0609 42.6972 76.4706 42.8965C75.8879 43.0882 75.2132 43.184 74.4466 43.184C74.0402 43.184 73.6416 43.1457 73.2506 43.069C72.8672 43 72.4954 42.9003 72.1351 42.77C71.7824 42.6397 71.4527 42.4863 71.1461 42.31C70.8471 42.1337 70.5826 41.942 70.3526 41.735L71.0081 40.654C71.0924 40.5237 71.1921 40.424 71.3071 40.355C71.4221 40.286 71.5677 40.2515 71.7441 40.2515C71.9204 40.2515 72.0852 40.3013 72.2386 40.401C72.3996 40.5007 72.5836 40.608 72.7906 40.723C72.9976 40.838 73.2391 40.9453 73.5151 41.045C73.7987 41.1447 74.1552 41.1945 74.5846 41.1945C74.9219 41.1945 75.2094 41.1562 75.4471 41.0795C75.6924 40.9952 75.8917 40.8878 76.0451 40.7575C76.2061 40.6272 76.3211 40.4777 76.3901 40.309C76.4667 40.1327 76.5051 39.9525 76.5051 39.7685C76.5051 39.4925 76.4207 39.2663 76.2521 39.09C76.0911 38.9137 75.8726 38.7603 75.5966 38.63C75.3282 38.4997 75.0177 38.3847 74.6651 38.285C74.3201 38.1777 73.9636 38.0627 73.5956 37.94C73.2352 37.8173 72.8787 37.6755 72.5261 37.5145C72.1811 37.3458 71.8706 37.135 71.5946 36.882C71.3262 36.629 71.1077 36.3185 70.9391 35.9505C70.7781 35.5825 70.6976 35.1378 70.6976 34.6165C70.6976 34.1335 70.7934 33.6735 70.9851 33.2365C71.1767 32.7995 71.4566 32.42 71.8246 32.098C72.2002 31.7683 72.6641 31.5077 73.2161 31.316C73.7757 31.1167 74.4197 31.017 75.1481 31.017C75.9607 31.017 76.7006 31.1512 77.3676 31.4195C78.0346 31.6878 78.5904 32.0405 79.0351 32.4775L78.3911 33.501ZM85.2325 43.184C84.2052 43.184 83.4155 42.8965 82.8635 42.3215C82.3192 41.7388 82.047 40.9377 82.047 39.918V33.3285H80.8395C80.6862 33.3285 80.5558 33.2787 80.4485 33.179C80.3412 33.0793 80.2875 32.9298 80.2875 32.7305V31.6035L82.185 31.293L82.783 28.073C82.8213 27.9197 82.8942 27.8008 83.0015 27.7165C83.1088 27.6322 83.2468 27.59 83.4155 27.59H84.8875V31.3045H88.0385V33.3285H84.8875V39.7225C84.8875 40.0905 84.9757 40.378 85.152 40.585C85.336 40.792 85.5852 40.8955 85.8995 40.8955C86.0758 40.8955 86.2215 40.8763 86.3365 40.838C86.4592 40.792 86.5627 40.746 86.647 40.7C86.739 40.654 86.8195 40.6118 86.8885 40.5735C86.9575 40.5275 87.0265 40.5045 87.0955 40.5045C87.1798 40.5045 87.2488 40.5275 87.3025 40.5735C87.3562 40.6118 87.4137 40.6732 87.475 40.7575L88.326 42.1375C87.912 42.4825 87.4367 42.7432 86.9 42.9195C86.3633 43.0958 85.8075 43.184 85.2325 43.184ZM99.0034 43H95.8984V26.371H99.0034V43ZM105.897 43.184C104.869 43.184 104.08 42.8965 103.528 42.3215C102.983 41.7388 102.711 40.9377 102.711 39.918V33.3285H101.504C101.35 33.3285 101.22 33.2787 101.113 33.179C101.005 33.0793 100.952 32.9298 100.952 32.7305V31.6035L102.849 31.293L103.447 28.073C103.485 27.9197 103.558 27.8008 103.666 27.7165C103.773 27.6322 103.911 27.59 104.08 27.59H105.552V31.3045H108.703V33.3285H105.552V39.7225C105.552 40.0905 105.64 40.378 105.816 40.585C106 40.792 106.249 40.8955 106.564 40.8955C106.74 40.8955 106.886 40.8763 107.001 40.838C107.123 40.792 107.227 40.746 107.311 40.7C107.403 40.654 107.484 40.6118 107.553 40.5735C107.622 40.5275 107.691 40.5045 107.76 40.5045C107.844 40.5045 107.913 40.5275 107.967 40.5735C108.02 40.6118 108.078 40.6732 108.139 40.7575L108.99 42.1375C108.576 42.4825 108.101 42.7432 107.564 42.9195C107.027 43.0958 106.472 43.184 105.897 43.184ZM118.033 35.7435C118.033 35.3755 117.979 35.0305 117.872 34.7085C117.772 34.3788 117.619 34.0913 117.412 33.846C117.205 33.6007 116.94 33.409 116.618 33.271C116.304 33.1253 115.936 33.0525 115.514 33.0525C114.694 33.0525 114.046 33.2863 113.571 33.754C113.103 34.2217 112.804 34.8848 112.674 35.7435H118.033ZM112.616 37.457C112.662 38.0627 112.77 38.5878 112.938 39.0325C113.107 39.4695 113.329 39.8337 113.605 40.125C113.881 40.4087 114.207 40.6233 114.583 40.769C114.966 40.907 115.388 40.976 115.848 40.976C116.308 40.976 116.703 40.9223 117.032 40.815C117.37 40.7077 117.661 40.5888 117.906 40.4585C118.159 40.3282 118.378 40.2093 118.562 40.102C118.753 39.9947 118.937 39.941 119.114 39.941C119.351 39.941 119.528 40.0292 119.643 40.2055L120.459 41.2405C120.145 41.6085 119.792 41.919 119.401 42.172C119.01 42.4173 118.6 42.6167 118.171 42.77C117.749 42.9157 117.316 43.0192 116.871 43.0805C116.434 43.1418 116.009 43.1725 115.595 43.1725C114.774 43.1725 114.012 43.0383 113.306 42.77C112.601 42.494 111.988 42.0915 111.466 41.5625C110.945 41.0258 110.535 40.3665 110.236 39.5845C109.937 38.7948 109.787 37.8825 109.787 36.8475C109.787 36.0425 109.918 35.2873 110.178 34.582C110.439 33.869 110.811 33.2518 111.294 32.7305C111.784 32.2015 112.379 31.7837 113.076 31.477C113.782 31.1703 114.575 31.017 115.457 31.017C116.2 31.017 116.887 31.1358 117.515 31.3735C118.144 31.6112 118.684 31.96 119.137 32.42C119.589 32.8723 119.942 33.432 120.195 34.099C120.455 34.7583 120.586 35.5135 120.586 36.3645C120.586 36.7938 120.54 37.0852 120.448 37.2385C120.356 37.3842 120.179 37.457 119.919 37.457H112.616ZM122.717 43V31.201H124.454C124.822 31.201 125.063 31.3735 125.178 31.7185L125.362 32.5925C125.569 32.3625 125.784 32.1517 126.006 31.96C126.236 31.7683 126.478 31.6035 126.731 31.4655C126.992 31.3275 127.268 31.2202 127.559 31.1435C127.858 31.0592 128.184 31.017 128.536 31.017C129.28 31.017 129.89 31.2202 130.365 31.6265C130.848 32.0252 131.208 32.558 131.446 33.225C131.63 32.834 131.86 32.5005 132.136 32.2245C132.412 31.9408 132.715 31.7108 133.044 31.5345C133.374 31.3582 133.723 31.2278 134.091 31.1435C134.467 31.0592 134.842 31.017 135.218 31.017C135.87 31.017 136.448 31.1167 136.954 31.316C137.46 31.5153 137.886 31.8067 138.231 32.19C138.576 32.5733 138.837 33.041 139.013 33.593C139.197 34.145 139.289 34.7775 139.289 35.4905V43H136.448V35.4905C136.448 34.7392 136.284 34.1757 135.954 33.8C135.624 33.4167 135.141 33.225 134.505 33.225C134.214 33.225 133.941 33.2748 133.688 33.3745C133.443 33.4742 133.225 33.6198 133.033 33.8115C132.849 33.9955 132.703 34.2293 132.596 34.513C132.489 34.7967 132.435 35.1225 132.435 35.4905V43H129.583V35.4905C129.583 34.7008 129.422 34.1258 129.1 33.7655C128.786 33.4052 128.322 33.225 127.708 33.225C127.294 33.225 126.907 33.3285 126.547 33.5355C126.194 33.7348 125.865 34.0108 125.558 34.3635V43H122.717ZM157.46 40.355C157.767 40.355 158.008 40.4432 158.185 40.6195C158.369 40.7882 158.461 41.0143 158.461 41.298V43H147.053V42.057C147.053 41.8653 147.091 41.666 147.168 41.459C147.252 41.2443 147.382 41.0527 147.559 40.884L152.607 35.824C153.029 35.3947 153.405 34.9845 153.734 34.5935C154.072 34.2025 154.351 33.8153 154.574 33.432C154.796 33.0487 154.965 32.6615 155.08 32.2705C155.202 31.8718 155.264 31.454 155.264 31.017C155.264 30.6183 155.206 30.2695 155.091 29.9705C154.976 29.6638 154.811 29.407 154.597 29.2C154.39 28.993 154.137 28.8397 153.838 28.74C153.546 28.6327 153.217 28.579 152.849 28.579C152.511 28.579 152.197 28.6288 151.906 28.7285C151.622 28.8205 151.369 28.9547 151.147 29.131C150.924 29.2997 150.737 29.499 150.583 29.729C150.43 29.959 150.315 30.212 150.238 30.488C150.108 30.8407 149.939 31.0745 149.732 31.1895C149.525 31.3045 149.226 31.3313 148.835 31.27L147.34 31.0055C147.455 30.2082 147.678 29.5105 148.007 28.9125C148.337 28.3068 148.747 27.8047 149.238 27.406C149.736 26.9997 150.303 26.6968 150.94 26.4975C151.584 26.2905 152.274 26.187 153.01 26.187C153.776 26.187 154.478 26.302 155.114 26.532C155.751 26.7543 156.295 27.0725 156.747 27.4865C157.2 27.9005 157.552 28.3988 157.805 28.9815C158.058 29.5642 158.185 30.212 158.185 30.925C158.185 31.5383 158.093 32.1057 157.909 32.627C157.732 33.1483 157.491 33.6467 157.184 34.122C156.885 34.5973 156.533 35.0573 156.126 35.502C155.72 35.9467 155.294 36.399 154.85 36.859L151.101 40.6885C151.461 40.5812 151.818 40.5007 152.17 40.447C152.531 40.3857 152.872 40.355 153.194 40.355H157.46Z" fill="black"/>
<path d="M63.56 64.216C63.56 65.064 63.4187 65.8427 63.136 66.552C62.8533 67.2613 62.456 67.872 61.944 68.384C61.432 68.896 60.816 69.2933 60.096 69.576C59.376 69.8587 58.576 70 57.696 70H53.288V58.432H57.696C58.576 58.432 59.376 58.576 60.096 58.864C60.816 59.1467 61.432 59.544 61.944 60.056C62.456 60.5627 62.8533 61.1707 63.136 61.88C63.4187 62.5893 63.56 63.368 63.56 64.216ZM61.352 64.216C61.352 63.5813 61.2667 63.0133 61.096 62.512C60.9307 62.0053 60.688 61.5787 60.368 61.232C60.0533 60.88 59.6693 60.6107 59.216 60.424C58.768 60.2373 58.2613 60.144 57.696 60.144H55.448V68.288H57.696C58.2613 68.288 58.768 68.1947 59.216 68.008C59.6693 67.8213 60.0533 67.5547 60.368 67.208C60.688 66.856 60.9307 66.4293 61.096 65.928C61.2667 65.4213 61.352 64.8507 61.352 64.216ZM70.3265 64.952C70.3265 64.696 70.2892 64.456 70.2145 64.232C70.1452 64.0027 70.0385 63.8027 69.8945 63.632C69.7505 63.4613 69.5665 63.328 69.3425 63.232C69.1238 63.1307 68.8678 63.08 68.5745 63.08C68.0038 63.08 67.5532 63.2427 67.2225 63.568C66.8972 63.8933 66.6892 64.3547 66.5985 64.952H70.3265ZM66.5585 66.144C66.5905 66.5653 66.6652 66.9307 66.7825 67.24C66.8998 67.544 67.0545 67.7973 67.2465 68C67.4385 68.1973 67.6652 68.3467 67.9265 68.448C68.1932 68.544 68.4865 68.592 68.8065 68.592C69.1265 68.592 69.4012 68.5547 69.6305 68.48C69.8652 68.4053 70.0678 68.3227 70.2385 68.232C70.4145 68.1413 70.5665 68.0587 70.6945 67.984C70.8278 67.9093 70.9558 67.872 71.0785 67.872C71.2438 67.872 71.3665 67.9333 71.4465 68.056L72.0145 68.776C71.7958 69.032 71.5505 69.248 71.2785 69.424C71.0065 69.5947 70.7212 69.7333 70.4225 69.84C70.1292 69.9413 69.8278 70.0133 69.5185 70.056C69.2145 70.0987 68.9185 70.12 68.6305 70.12C68.0598 70.12 67.5292 70.0267 67.0385 69.84C66.5478 69.648 66.1212 69.368 65.7585 69C65.3958 68.6267 65.1105 68.168 64.9025 67.624C64.6945 67.0747 64.5905 66.44 64.5905 65.72C64.5905 65.16 64.6812 64.6347 64.8625 64.144C65.0438 63.648 65.3025 63.2187 65.6385 62.856C65.9798 62.488 66.3932 62.1973 66.8785 61.984C67.3692 61.7707 67.9212 61.664 68.5345 61.664C69.0518 61.664 69.5292 61.7467 69.9665 61.912C70.4038 62.0773 70.7798 62.32 71.0945 62.64C71.4092 62.9547 71.6545 63.344 71.8305 63.808C72.0118 64.2667 72.1025 64.792 72.1025 65.384C72.1025 65.6827 72.0705 65.8853 72.0065 65.992C71.9425 66.0933 71.8198 66.144 71.6385 66.144H66.5585ZM78.5934 63.392C78.54 63.4773 78.484 63.5387 78.4254 63.576C78.3667 63.608 78.292 63.624 78.2014 63.624C78.1054 63.624 78.0014 63.5973 77.8894 63.544C77.7827 63.4907 77.6574 63.432 77.5134 63.368C77.3694 63.2987 77.204 63.2373 77.0174 63.184C76.836 63.1307 76.62 63.104 76.3694 63.104C75.98 63.104 75.6734 63.1867 75.4494 63.352C75.2307 63.5173 75.1214 63.7333 75.1214 64C75.1214 64.176 75.1774 64.3253 75.2894 64.448C75.4067 64.5653 75.5587 64.6693 75.7454 64.76C75.9374 64.8507 76.1534 64.9333 76.3934 65.008C76.6334 65.0773 76.876 65.1547 77.1214 65.24C77.372 65.3253 77.6174 65.424 77.8574 65.536C78.0974 65.6427 78.3107 65.7813 78.4974 65.952C78.6894 66.1173 78.8414 66.3173 78.9534 66.552C79.0707 66.7867 79.1294 67.0693 79.1294 67.4C79.1294 67.7947 79.0574 68.16 78.9134 68.496C78.7747 68.8267 78.5667 69.1147 78.2894 69.36C78.012 69.6 77.668 69.7893 77.2574 69.928C76.852 70.0613 76.3827 70.128 75.8494 70.128C75.5667 70.128 75.2894 70.1013 75.0174 70.048C74.7507 70 74.492 69.9307 74.2414 69.84C73.996 69.7493 73.7667 69.6427 73.5534 69.52C73.3454 69.3973 73.1614 69.264 73.0014 69.12L73.4574 68.368C73.516 68.2773 73.5854 68.208 73.6654 68.16C73.7454 68.112 73.8467 68.088 73.9694 68.088C74.092 68.088 74.2067 68.1227 74.3134 68.192C74.4254 68.2613 74.5534 68.336 74.6974 68.416C74.8414 68.496 75.0094 68.5707 75.2014 68.64C75.3987 68.7093 75.6467 68.744 75.9454 68.744C76.18 68.744 76.38 68.7173 76.5454 68.664C76.716 68.6053 76.8547 68.5307 76.9614 68.44C77.0734 68.3493 77.1534 68.2453 77.2014 68.128C77.2547 68.0053 77.2814 67.88 77.2814 67.752C77.2814 67.56 77.2227 67.4027 77.1054 67.28C76.9934 67.1573 76.8414 67.0507 76.6494 66.96C76.4627 66.8693 76.2467 66.7893 76.0014 66.72C75.7614 66.6453 75.5134 66.5653 75.2574 66.48C75.0067 66.3947 74.7587 66.296 74.5134 66.184C74.2734 66.0667 74.0574 65.92 73.8654 65.744C73.6787 65.568 73.5267 65.352 73.4094 65.096C73.2974 64.84 73.2414 64.5307 73.2414 64.168C73.2414 63.832 73.308 63.512 73.4414 63.208C73.5747 62.904 73.7694 62.64 74.0254 62.416C74.2867 62.1867 74.6094 62.0053 74.9934 61.872C75.3827 61.7333 75.8307 61.664 76.3374 61.664C76.9027 61.664 77.4174 61.7573 77.8814 61.944C78.3454 62.1307 78.732 62.376 79.0414 62.68L78.5934 63.392ZM86.4966 63.528C86.438 63.6027 86.3793 63.6613 86.3206 63.704C86.2673 63.7467 86.1873 63.768 86.0806 63.768C85.9793 63.768 85.8806 63.7387 85.7846 63.68C85.6886 63.616 85.574 63.5467 85.4406 63.472C85.3073 63.392 85.1473 63.3227 84.9606 63.264C84.7793 63.2 84.5526 63.168 84.2806 63.168C83.934 63.168 83.63 63.232 83.3686 63.36C83.1073 63.4827 82.8886 63.6613 82.7126 63.896C82.542 64.1307 82.414 64.416 82.3286 64.752C82.2433 65.0827 82.2006 65.4587 82.2006 65.88C82.2006 66.3173 82.246 66.7067 82.3366 67.048C82.4326 67.3893 82.5686 67.6773 82.7446 67.912C82.9206 68.1413 83.134 68.3173 83.3846 68.44C83.6353 68.5573 83.918 68.616 84.2326 68.616C84.5473 68.616 84.8006 68.5787 84.9926 68.504C85.19 68.424 85.3553 68.3387 85.4886 68.248C85.622 68.152 85.7366 68.0667 85.8326 67.992C85.934 67.912 86.046 67.872 86.1686 67.872C86.3286 67.872 86.4486 67.9333 86.5286 68.056L87.0966 68.776C86.878 69.032 86.6406 69.248 86.3846 69.424C86.1286 69.5947 85.862 69.7333 85.5846 69.84C85.3126 69.9413 85.03 70.0133 84.7366 70.056C84.4486 70.0987 84.1606 70.12 83.8726 70.12C83.366 70.12 82.8886 70.0267 82.4406 69.84C81.9926 69.648 81.6006 69.3707 81.2646 69.008C80.9286 68.6453 80.662 68.2027 80.4646 67.68C80.2726 67.152 80.1766 66.552 80.1766 65.88C80.1766 65.2773 80.262 64.72 80.4326 64.208C80.6086 63.6907 80.8646 63.2453 81.2006 62.872C81.5366 62.4933 81.9526 62.1973 82.4486 61.984C82.9446 61.7707 83.5153 61.664 84.1606 61.664C84.774 61.664 85.31 61.7627 85.7686 61.96C86.2326 62.1573 86.6486 62.44 87.0166 62.808L86.4966 63.528ZM90.1994 63.216C90.4554 62.7253 90.7594 62.3413 91.1114 62.064C91.4634 61.7813 91.8794 61.64 92.3594 61.64C92.738 61.64 93.042 61.7227 93.2714 61.888L93.1434 63.368C93.1167 63.464 93.0767 63.5333 93.0234 63.576C92.9754 63.6133 92.9087 63.632 92.8234 63.632C92.7434 63.632 92.6234 63.6187 92.4634 63.592C92.3087 63.5653 92.1567 63.552 92.0074 63.552C91.7887 63.552 91.594 63.584 91.4234 63.648C91.2527 63.712 91.098 63.8053 90.9594 63.928C90.826 64.0453 90.706 64.1893 90.5994 64.36C90.498 64.5307 90.402 64.7253 90.3114 64.944V70H88.3354V61.792H89.4954C89.698 61.792 89.8394 61.8293 89.9194 61.904C89.9994 61.9733 90.0527 62.1013 90.0794 62.288L90.1994 63.216ZM96.3521 61.792V70H94.3681V61.792H96.3521ZM96.6241 59.4C96.6241 59.5707 96.5895 59.7307 96.5201 59.88C96.4508 60.0293 96.3575 60.16 96.2401 60.272C96.1281 60.384 95.9948 60.4747 95.8401 60.544C95.6855 60.608 95.5201 60.64 95.3441 60.64C95.1735 60.64 95.0108 60.608 94.8561 60.544C94.7068 60.4747 94.5761 60.384 94.4641 60.272C94.3521 60.16 94.2615 60.0293 94.1921 59.88C94.1281 59.7307 94.0961 59.5707 94.0961 59.4C94.0961 59.224 94.1281 59.0587 94.1921 58.904C94.2615 58.7493 94.3521 58.616 94.4641 58.504C94.5761 58.392 94.7068 58.304 94.8561 58.24C95.0108 58.1707 95.1735 58.136 95.3441 58.136C95.5201 58.136 95.6855 58.1707 95.8401 58.24C95.9948 58.304 96.1281 58.392 96.2401 58.504C96.3575 58.616 96.4508 58.7493 96.5201 58.904C96.5895 59.0587 96.6241 59.224 96.6241 59.4ZM100.343 67.872C100.567 68.144 100.809 68.336 101.071 68.448C101.337 68.56 101.625 68.616 101.935 68.616C102.233 68.616 102.503 68.56 102.743 68.448C102.983 68.336 103.185 68.1653 103.351 67.936C103.521 67.7067 103.652 67.4187 103.743 67.072C103.833 66.72 103.879 66.3067 103.879 65.832C103.879 65.352 103.839 64.9467 103.759 64.616C103.684 64.28 103.575 64.008 103.431 63.8C103.287 63.592 103.111 63.44 102.903 63.344C102.7 63.248 102.468 63.2 102.207 63.2C101.796 63.2 101.447 63.288 101.159 63.464C100.871 63.6347 100.599 63.8773 100.343 64.192V67.872ZM100.239 62.912C100.575 62.5333 100.956 62.2267 101.383 61.992C101.809 61.7573 102.311 61.64 102.887 61.64C103.335 61.64 103.743 61.7333 104.111 61.92C104.484 62.1067 104.804 62.3787 105.071 62.736C105.343 63.088 105.551 63.5253 105.695 64.048C105.844 64.5653 105.919 65.16 105.919 65.832C105.919 66.4453 105.836 67.0133 105.671 67.536C105.505 68.0587 105.268 68.512 104.959 68.896C104.655 69.28 104.284 69.5813 103.847 69.8C103.415 70.0133 102.929 70.12 102.391 70.12C101.932 70.12 101.54 70.0507 101.215 69.912C100.889 69.768 100.599 69.5707 100.343 69.32V72.68H98.3666V61.792H99.5746C99.8306 61.792 99.9986 61.912 100.079 62.152L100.239 62.912ZM115.631 70H113.655V63.272H109.847V67.72C109.847 67.976 109.908 68.176 110.031 68.32C110.159 68.464 110.332 68.536 110.551 68.536C110.674 68.536 110.775 68.5227 110.855 68.496C110.94 68.464 111.012 68.432 111.071 68.4C111.135 68.368 111.191 68.3387 111.239 68.312C111.287 68.28 111.335 68.264 111.383 68.264C111.442 68.264 111.49 68.28 111.527 68.312C111.564 68.3387 111.604 68.3813 111.647 68.44L112.239 69.4C111.951 69.64 111.62 69.8213 111.247 69.944C110.874 70.0667 110.487 70.128 110.087 70.128C109.372 70.128 108.823 69.928 108.439 69.528C108.06 69.1227 107.871 68.5653 107.871 67.856V63.272H107.031C106.924 63.272 106.834 63.2373 106.759 63.168C106.684 63.0987 106.647 62.9947 106.647 62.856V62.072L107.967 61.848L108.383 59.616C108.41 59.5093 108.46 59.4267 108.535 59.368C108.61 59.3093 108.706 59.28 108.823 59.28H109.847V61.864H115.631V70ZM115.975 59.368C115.975 59.5387 115.94 59.7013 115.871 59.856C115.802 60.0053 115.708 60.136 115.591 60.248C115.479 60.36 115.343 60.4507 115.183 60.52C115.028 60.584 114.863 60.616 114.687 60.616C114.516 60.616 114.356 60.584 114.207 60.52C114.058 60.4507 113.927 60.36 113.815 60.248C113.703 60.136 113.612 60.0053 113.543 59.856C113.479 59.7013 113.447 59.5387 113.447 59.368C113.447 59.192 113.479 59.0293 113.543 58.88C113.612 58.7253 113.703 58.592 113.815 58.48C113.927 58.3627 114.058 58.272 114.207 58.208C114.356 58.1387 114.516 58.104 114.687 58.104C114.863 58.104 115.028 58.1387 115.183 58.208C115.343 58.272 115.479 58.3627 115.591 58.48C115.708 58.592 115.802 58.7253 115.871 58.88C115.94 59.0293 115.975 59.192 115.975 59.368ZM121.28 61.664C121.888 61.664 122.44 61.7627 122.936 61.96C123.437 62.1573 123.864 62.4373 124.216 62.8C124.573 63.1627 124.848 63.6053 125.04 64.128C125.232 64.6507 125.328 65.2347 125.328 65.88C125.328 66.5307 125.232 67.1173 125.04 67.64C124.848 68.1627 124.573 68.608 124.216 68.976C123.864 69.344 123.437 69.6267 122.936 69.824C122.44 70.0213 121.888 70.12 121.28 70.12C120.667 70.12 120.109 70.0213 119.608 69.824C119.107 69.6267 118.677 69.344 118.32 68.976C117.968 68.608 117.693 68.1627 117.496 67.64C117.304 67.1173 117.208 66.5307 117.208 65.88C117.208 65.2347 117.304 64.6507 117.496 64.128C117.693 63.6053 117.968 63.1627 118.32 62.8C118.677 62.4373 119.107 62.1573 119.608 61.96C120.109 61.7627 120.667 61.664 121.28 61.664ZM121.28 68.6C121.963 68.6 122.467 68.3707 122.792 67.912C123.123 67.4533 123.288 66.7813 123.288 65.896C123.288 65.0107 123.123 64.336 122.792 63.872C122.467 63.408 121.963 63.176 121.28 63.176C120.587 63.176 120.072 63.4107 119.736 63.88C119.405 64.344 119.24 65.016 119.24 65.896C119.24 66.776 119.405 67.448 119.736 67.912C120.072 68.3707 120.587 68.6 121.28 68.6ZM128.683 62.8C128.849 62.6347 129.022 62.4827 129.203 62.344C129.39 62.2 129.585 62.08 129.787 61.984C129.995 61.8827 130.217 61.8053 130.451 61.752C130.686 61.6933 130.942 61.664 131.219 61.664C131.667 61.664 132.065 61.7413 132.411 61.896C132.758 62.0453 133.046 62.2587 133.275 62.536C133.51 62.808 133.686 63.136 133.803 63.52C133.926 63.8987 133.987 64.3173 133.987 64.776V70H132.011V64.776C132.011 64.2747 131.897 63.888 131.667 63.616C131.438 63.3387 131.089 63.2 130.619 63.2C130.278 63.2 129.958 63.2773 129.659 63.432C129.361 63.5867 129.078 63.7973 128.811 64.064V70H126.835V61.792H128.043C128.299 61.792 128.467 61.912 128.547 62.152L128.683 62.8ZM143.389 61.664C143.997 61.664 144.549 61.7627 145.045 61.96C145.547 62.1573 145.973 62.4373 146.325 62.8C146.683 63.1627 146.957 63.6053 147.149 64.128C147.341 64.6507 147.437 65.2347 147.437 65.88C147.437 66.5307 147.341 67.1173 147.149 67.64C146.957 68.1627 146.683 68.608 146.325 68.976C145.973 69.344 145.547 69.6267 145.045 69.824C144.549 70.0213 143.997 70.12 143.389 70.12C142.776 70.12 142.219 70.0213 141.717 69.824C141.216 69.6267 140.787 69.344 140.429 68.976C140.077 68.608 139.803 68.1627 139.605 67.64C139.413 67.1173 139.317 66.5307 139.317 65.88C139.317 65.2347 139.413 64.6507 139.605 64.128C139.803 63.6053 140.077 63.1627 140.429 62.8C140.787 62.4373 141.216 62.1573 141.717 61.96C142.219 61.7627 142.776 61.664 143.389 61.664ZM143.389 68.6C144.072 68.6 144.576 68.3707 144.901 67.912C145.232 67.4533 145.397 66.7813 145.397 65.896C145.397 65.0107 145.232 64.336 144.901 63.872C144.576 63.408 144.072 63.176 143.389 63.176C142.696 63.176 142.181 63.4107 141.845 63.88C141.515 64.344 141.349 65.016 141.349 65.896C141.349 66.776 141.515 67.448 141.845 67.912C142.181 68.3707 142.696 68.6 143.389 68.6ZM149.318 70V63.28L148.606 63.168C148.451 63.136 148.326 63.0827 148.23 63.008C148.139 62.928 148.094 62.816 148.094 62.672V61.864H149.318V61.256C149.318 60.7867 149.387 60.3653 149.526 59.992C149.67 59.6187 149.872 59.3013 150.134 59.04C150.4 58.7787 150.723 58.5787 151.102 58.44C151.48 58.3013 151.907 58.232 152.382 58.232C152.76 58.232 153.112 58.2827 153.438 58.384L153.398 59.376C153.392 59.4507 153.371 59.512 153.334 59.56C153.296 59.6027 153.246 59.6373 153.182 59.664C153.123 59.6853 153.054 59.7013 152.974 59.712C152.894 59.7173 152.808 59.72 152.718 59.72C152.483 59.72 152.272 59.7467 152.086 59.8C151.904 59.848 151.75 59.936 151.622 60.064C151.494 60.1867 151.395 60.352 151.326 60.56C151.262 60.7627 151.23 61.016 151.23 61.32V61.864H153.366V63.272H151.294V70H149.318ZM160.806 70.128C160.091 70.128 159.542 69.928 159.158 69.528C158.779 69.1227 158.59 68.5653 158.59 67.856V63.272H157.75C157.643 63.272 157.552 63.2373 157.478 63.168C157.403 63.0987 157.366 62.9947 157.366 62.856V62.072L158.686 61.856L159.102 59.616C159.128 59.5093 159.179 59.4267 159.254 59.368C159.328 59.3093 159.424 59.28 159.542 59.28H160.566V61.864H162.758V63.272H160.566V67.72C160.566 67.976 160.627 68.176 160.75 68.32C160.878 68.464 161.051 68.536 161.27 68.536C161.392 68.536 161.494 68.5227 161.574 68.496C161.659 68.464 161.731 68.432 161.79 68.4C161.854 68.368 161.91 68.3387 161.958 68.312C162.006 68.28 162.054 68.264 162.102 68.264C162.16 68.264 162.208 68.28 162.246 68.312C162.283 68.3387 162.323 68.3813 162.366 68.44L162.958 69.4C162.67 69.64 162.339 69.8213 161.966 69.944C161.592 70.0667 161.206 70.128 160.806 70.128ZM165.999 62.672C166.319 62.3733 166.671 62.1307 167.055 61.944C167.439 61.7573 167.89 61.664 168.407 61.664C168.855 61.664 169.252 61.7413 169.599 61.896C169.946 62.0453 170.234 62.2587 170.463 62.536C170.698 62.808 170.874 63.136 170.991 63.52C171.114 63.8987 171.175 64.3173 171.175 64.776V70H169.199V64.776C169.199 64.2747 169.084 63.888 168.855 63.616C168.626 63.3387 168.276 63.2 167.807 63.2C167.466 63.2 167.146 63.2773 166.847 63.432C166.548 63.5867 166.266 63.7973 165.999 64.064V70H164.023V58.112H165.999V62.672ZM178.342 64.952C178.342 64.696 178.305 64.456 178.23 64.232C178.161 64.0027 178.054 63.8027 177.91 63.632C177.766 63.4613 177.582 63.328 177.358 63.232C177.139 63.1307 176.883 63.08 176.59 63.08C176.019 63.08 175.569 63.2427 175.238 63.568C174.913 63.8933 174.705 64.3547 174.614 64.952H178.342ZM174.574 66.144C174.606 66.5653 174.681 66.9307 174.798 67.24C174.915 67.544 175.07 67.7973 175.262 68C175.454 68.1973 175.681 68.3467 175.942 68.448C176.209 68.544 176.502 68.592 176.822 68.592C177.142 68.592 177.417 68.5547 177.646 68.48C177.881 68.4053 178.083 68.3227 178.254 68.232C178.43 68.1413 178.582 68.0587 178.71 67.984C178.843 67.9093 178.971 67.872 179.094 67.872C179.259 67.872 179.382 67.9333 179.462 68.056L180.03 68.776C179.811 69.032 179.566 69.248 179.294 69.424C179.022 69.5947 178.737 69.7333 178.438 69.84C178.145 69.9413 177.843 70.0133 177.534 70.056C177.23 70.0987 176.934 70.12 176.646 70.12C176.075 70.12 175.545 70.0267 175.054 69.84C174.563 69.648 174.137 69.368 173.774 69C173.411 68.6267 173.126 68.168 172.918 67.624C172.71 67.0747 172.606 66.44 172.606 65.72C172.606 65.16 172.697 64.6347 172.878 64.144C173.059 63.648 173.318 63.2187 173.654 62.856C173.995 62.488 174.409 62.1973 174.894 61.984C175.385 61.7707 175.937 61.664 176.55 61.664C177.067 61.664 177.545 61.7467 177.982 61.912C178.419 62.0773 178.795 62.32 179.11 62.64C179.425 62.9547 179.67 63.344 179.846 63.808C180.027 64.2667 180.118 64.792 180.118 65.384C180.118 65.6827 180.086 65.8853 180.022 65.992C179.958 66.0933 179.835 66.144 179.654 66.144H174.574ZM190.5 63.392C190.446 63.4773 190.39 63.5387 190.332 63.576C190.273 63.608 190.198 63.624 190.108 63.624C190.012 63.624 189.908 63.5973 189.796 63.544C189.689 63.4907 189.564 63.432 189.42 63.368C189.276 63.2987 189.11 63.2373 188.924 63.184C188.742 63.1307 188.526 63.104 188.276 63.104C187.886 63.104 187.58 63.1867 187.356 63.352C187.137 63.5173 187.028 63.7333 187.028 64C187.028 64.176 187.084 64.3253 187.196 64.448C187.313 64.5653 187.465 64.6693 187.652 64.76C187.844 64.8507 188.06 64.9333 188.3 65.008C188.54 65.0773 188.782 65.1547 189.028 65.24C189.278 65.3253 189.524 65.424 189.764 65.536C190.004 65.6427 190.217 65.7813 190.404 65.952C190.596 66.1173 190.748 66.3173 190.86 66.552C190.977 66.7867 191.036 67.0693 191.036 67.4C191.036 67.7947 190.964 68.16 190.82 68.496C190.681 68.8267 190.473 69.1147 190.196 69.36C189.918 69.6 189.574 69.7893 189.164 69.928C188.758 70.0613 188.289 70.128 187.756 70.128C187.473 70.128 187.196 70.1013 186.924 70.048C186.657 70 186.398 69.9307 186.148 69.84C185.902 69.7493 185.673 69.6427 185.46 69.52C185.252 69.3973 185.068 69.264 184.908 69.12L185.364 68.368C185.422 68.2773 185.492 68.208 185.572 68.16C185.652 68.112 185.753 68.088 185.876 68.088C185.998 68.088 186.113 68.1227 186.22 68.192C186.332 68.2613 186.46 68.336 186.604 68.416C186.748 68.496 186.916 68.5707 187.108 68.64C187.305 68.7093 187.553 68.744 187.852 68.744C188.086 68.744 188.286 68.7173 188.452 68.664C188.622 68.6053 188.761 68.5307 188.868 68.44C188.98 68.3493 189.06 68.2453 189.108 68.128C189.161 68.0053 189.188 67.88 189.188 67.752C189.188 67.56 189.129 67.4027 189.012 67.28C188.9 67.1573 188.748 67.0507 188.556 66.96C188.369 66.8693 188.153 66.7893 187.908 66.72C187.668 66.6453 187.42 66.5653 187.164 66.48C186.913 66.3947 186.665 66.296 186.42 66.184C186.18 66.0667 185.964 65.92 185.772 65.744C185.585 65.568 185.433 65.352 185.316 65.096C185.204 64.84 185.148 64.5307 185.148 64.168C185.148 63.832 185.214 63.512 185.348 63.208C185.481 62.904 185.676 62.64 185.932 62.416C186.193 62.1867 186.516 62.0053 186.9 61.872C187.289 61.7333 187.737 61.664 188.244 61.664C188.809 61.664 189.324 61.7573 189.788 61.944C190.252 62.1307 190.638 62.376 190.948 62.68L190.5 63.392ZM197.811 64.952C197.811 64.696 197.774 64.456 197.699 64.232C197.63 64.0027 197.523 63.8027 197.379 63.632C197.235 63.4613 197.051 63.328 196.827 63.232C196.608 63.1307 196.352 63.08 196.059 63.08C195.488 63.08 195.038 63.2427 194.707 63.568C194.382 63.8933 194.174 64.3547 194.083 64.952H197.811ZM194.043 66.144C194.075 66.5653 194.15 66.9307 194.267 67.24C194.384 67.544 194.539 67.7973 194.731 68C194.923 68.1973 195.15 68.3467 195.411 68.448C195.678 68.544 195.971 68.592 196.291 68.592C196.611 68.592 196.886 68.5547 197.115 68.48C197.35 68.4053 197.552 68.3227 197.723 68.232C197.899 68.1413 198.051 68.0587 198.179 67.984C198.312 67.9093 198.44 67.872 198.563 67.872C198.728 67.872 198.851 67.9333 198.931 68.056L199.499 68.776C199.28 69.032 199.035 69.248 198.763 69.424C198.491 69.5947 198.206 69.7333 197.907 69.84C197.614 69.9413 197.312 70.0133 197.003 70.056C196.699 70.0987 196.403 70.12 196.115 70.12C195.544 70.12 195.014 70.0267 194.523 69.84C194.032 69.648 193.606 69.368 193.243 69C192.88 68.6267 192.595 68.168 192.387 67.624C192.179 67.0747 192.075 66.44 192.075 65.72C192.075 65.16 192.166 64.6347 192.347 64.144C192.528 63.648 192.787 63.2187 193.123 62.856C193.464 62.488 193.878 62.1973 194.363 61.984C194.854 61.7707 195.406 61.664 196.019 61.664C196.536 61.664 197.014 61.7467 197.451 61.912C197.888 62.0773 198.264 62.32 198.579 62.64C198.894 62.9547 199.139 63.344 199.315 63.808C199.496 64.2667 199.587 64.792 199.587 65.384C199.587 65.6827 199.555 65.8853 199.491 65.992C199.427 66.0933 199.304 66.144 199.123 66.144H194.043ZM206.95 63.528C206.891 63.6027 206.832 63.6613 206.774 63.704C206.72 63.7467 206.64 63.768 206.534 63.768C206.432 63.768 206.334 63.7387 206.238 63.68C206.142 63.616 206.027 63.5467 205.894 63.472C205.76 63.392 205.6 63.3227 205.414 63.264C205.232 63.2 205.006 63.168 204.734 63.168C204.387 63.168 204.083 63.232 203.822 63.36C203.56 63.4827 203.342 63.6613 203.166 63.896C202.995 64.1307 202.867 64.416 202.782 64.752C202.696 65.0827 202.654 65.4587 202.654 65.88C202.654 66.3173 202.699 66.7067 202.79 67.048C202.886 67.3893 203.022 67.6773 203.198 67.912C203.374 68.1413 203.587 68.3173 203.838 68.44C204.088 68.5573 204.371 68.616 204.686 68.616C205 68.616 205.254 68.5787 205.446 68.504C205.643 68.424 205.808 68.3387 205.942 68.248C206.075 68.152 206.19 68.0667 206.286 67.992C206.387 67.912 206.499 67.872 206.622 67.872C206.782 67.872 206.902 67.9333 206.982 68.056L207.55 68.776C207.331 69.032 207.094 69.248 206.838 69.424C206.582 69.5947 206.315 69.7333 206.038 69.84C205.766 69.9413 205.483 70.0133 205.19 70.056C204.902 70.0987 204.614 70.12 204.326 70.12C203.819 70.12 203.342 70.0267 202.894 69.84C202.446 69.648 202.054 69.3707 201.718 69.008C201.382 68.6453 201.115 68.2027 200.918 67.68C200.726 67.152 200.63 66.552 200.63 65.88C200.63 65.2773 200.715 64.72 200.886 64.208C201.062 63.6907 201.318 63.2453 201.654 62.872C201.99 62.4933 202.406 62.1973 202.902 61.984C203.398 61.7707 203.968 61.664 204.614 61.664C205.227 61.664 205.763 61.7627 206.222 61.96C206.686 62.1573 207.102 62.44 207.47 62.808L206.95 63.528ZM212.28 61.664C212.888 61.664 213.44 61.7627 213.936 61.96C214.437 62.1573 214.864 62.4373 215.216 62.8C215.573 63.1627 215.848 63.6053 216.04 64.128C216.232 64.6507 216.328 65.2347 216.328 65.88C216.328 66.5307 216.232 67.1173 216.04 67.64C215.848 68.1627 215.573 68.608 215.216 68.976C214.864 69.344 214.437 69.6267 213.936 69.824C213.44 70.0213 212.888 70.12 212.28 70.12C211.667 70.12 211.109 70.0213 210.608 69.824C210.107 69.6267 209.677 69.344 209.32 68.976C208.968 68.608 208.693 68.1627 208.496 67.64C208.304 67.1173 208.208 66.5307 208.208 65.88C208.208 65.2347 208.304 64.6507 208.496 64.128C208.693 63.6053 208.968 63.1627 209.32 62.8C209.677 62.4373 210.107 62.1573 210.608 61.96C211.109 61.7627 211.667 61.664 212.28 61.664ZM212.28 68.6C212.963 68.6 213.467 68.3707 213.792 67.912C214.123 67.4533 214.288 66.7813 214.288 65.896C214.288 65.0107 214.123 64.336 213.792 63.872C213.467 63.408 212.963 63.176 212.28 63.176C211.587 63.176 211.072 63.4107 210.736 63.88C210.405 64.344 210.24 65.016 210.24 65.896C210.24 66.776 210.405 67.448 210.736 67.912C211.072 68.3707 211.587 68.6 212.28 68.6ZM219.683 62.8C219.849 62.6347 220.022 62.4827 220.203 62.344C220.39 62.2 220.585 62.08 220.787 61.984C220.995 61.8827 221.217 61.8053 221.451 61.752C221.686 61.6933 221.942 61.664 222.219 61.664C222.667 61.664 223.065 61.7413 223.411 61.896C223.758 62.0453 224.046 62.2587 224.275 62.536C224.51 62.808 224.686 63.136 224.803 63.52C224.926 63.8987 224.987 64.3173 224.987 64.776V70H223.011V64.776C223.011 64.2747 222.897 63.888 222.667 63.616C222.438 63.3387 222.089 63.2 221.619 63.2C221.278 63.2 220.958 63.2773 220.659 63.432C220.361 63.5867 220.078 63.7973 219.811 64.064V70H217.835V61.792H219.043C219.299 61.792 219.467 61.912 219.547 62.152L219.683 62.8ZM232.019 63.888C231.795 63.616 231.549 63.424 231.283 63.312C231.021 63.2 230.739 63.144 230.435 63.144C230.136 63.144 229.867 63.2 229.627 63.312C229.387 63.424 229.181 63.5947 229.011 63.824C228.84 64.048 228.709 64.336 228.619 64.688C228.528 65.0347 228.483 65.4453 228.483 65.92C228.483 66.4 228.52 66.808 228.595 67.144C228.675 67.4747 228.787 67.7467 228.931 67.96C229.075 68.168 229.251 68.32 229.459 68.416C229.667 68.5067 229.899 68.552 230.155 68.552C230.565 68.552 230.915 68.4667 231.203 68.296C231.491 68.1253 231.763 67.8827 232.019 67.568V63.888ZM233.995 58.112V70H232.787C232.525 70 232.36 69.88 232.291 69.64L232.123 68.848C231.792 69.2267 231.411 69.5333 230.979 69.768C230.552 70.0027 230.053 70.12 229.483 70.12C229.035 70.12 228.624 70.0267 228.251 69.84C227.877 69.6533 227.555 69.384 227.283 69.032C227.016 68.6747 226.808 68.2347 226.659 67.712C226.515 67.1893 226.443 66.592 226.443 65.92C226.443 65.312 226.525 64.7467 226.691 64.224C226.856 63.7013 227.093 63.248 227.403 62.864C227.712 62.48 228.083 62.1813 228.515 61.968C228.947 61.7493 229.432 61.64 229.971 61.64C230.429 61.64 230.821 61.712 231.147 61.856C231.472 62 231.763 62.1947 232.019 62.44V58.112H233.995ZM241.883 61.792V70H239.899V61.792H241.883ZM242.155 59.4C242.155 59.5707 242.121 59.7307 242.051 59.88C241.982 60.0293 241.889 60.16 241.771 60.272C241.659 60.384 241.526 60.4747 241.371 60.544C241.217 60.608 241.051 60.64 240.875 60.64C240.705 60.64 240.542 60.608 240.387 60.544C240.238 60.4747 240.107 60.384 239.995 60.272C239.883 60.16 239.793 60.0293 239.723 59.88C239.659 59.7307 239.627 59.5707 239.627 59.4C239.627 59.224 239.659 59.0587 239.723 58.904C239.793 58.7493 239.883 58.616 239.995 58.504C240.107 58.392 240.238 58.304 240.387 58.24C240.542 58.1707 240.705 58.136 240.875 58.136C241.051 58.136 241.217 58.1707 241.371 58.24C241.526 58.304 241.659 58.392 241.771 58.504C241.889 58.616 241.982 58.7493 242.051 58.904C242.121 59.0587 242.155 59.224 242.155 59.4ZM246.634 70.128C245.919 70.128 245.37 69.928 244.986 69.528C244.607 69.1227 244.418 68.5653 244.418 67.856V63.272H243.578C243.471 63.272 243.381 63.2373 243.306 63.168C243.231 63.0987 243.194 62.9947 243.194 62.856V62.072L244.514 61.856L244.93 59.616C244.957 59.5093 245.007 59.4267 245.082 59.368C245.157 59.3093 245.253 59.28 245.37 59.28H246.394V61.864H248.586V63.272H246.394V67.72C246.394 67.976 246.455 68.176 246.578 68.32C246.706 68.464 246.879 68.536 247.098 68.536C247.221 68.536 247.322 68.5227 247.402 68.496C247.487 68.464 247.559 68.432 247.618 68.4C247.682 68.368 247.738 68.3387 247.786 68.312C247.834 68.28 247.882 68.264 247.93 68.264C247.989 68.264 248.037 68.28 248.074 68.312C248.111 68.3387 248.151 68.3813 248.194 68.44L248.786 69.4C248.498 69.64 248.167 69.8213 247.794 69.944C247.421 70.0667 247.034 70.128 246.634 70.128ZM255.077 64.952C255.077 64.696 255.039 64.456 254.965 64.232C254.895 64.0027 254.789 63.8027 254.645 63.632C254.501 63.4613 254.317 63.328 254.093 63.232C253.874 63.1307 253.618 63.08 253.325 63.08C252.754 63.08 252.303 63.2427 251.973 63.568C251.647 63.8933 251.439 64.3547 251.349 64.952H255.077ZM251.309 66.144C251.341 66.5653 251.415 66.9307 251.533 67.24C251.65 67.544 251.805 67.7973 251.997 68C252.189 68.1973 252.415 68.3467 252.677 68.448C252.943 68.544 253.237 68.592 253.557 68.592C253.877 68.592 254.151 68.5547 254.381 68.48C254.615 68.4053 254.818 68.3227 254.989 68.232C255.165 68.1413 255.317 68.0587 255.445 67.984C255.578 67.9093 255.706 67.872 255.829 67.872C255.994 67.872 256.117 67.9333 256.197 68.056L256.765 68.776C256.546 69.032 256.301 69.248 256.029 69.424C255.757 69.5947 255.471 69.7333 255.173 69.84C254.879 69.9413 254.578 70.0133 254.269 70.056C253.965 70.0987 253.669 70.12 253.381 70.12C252.81 70.12 252.279 70.0267 251.789 69.84C251.298 69.648 250.871 69.368 250.509 69C250.146 68.6267 249.861 68.168 249.653 67.624C249.445 67.0747 249.34 66.44 249.34 65.72C249.34 65.16 249.431 64.6347 249.613 64.144C249.794 63.648 250.053 63.2187 250.389 62.856C250.73 62.488 251.143 62.1973 251.629 61.984C252.119 61.7707 252.671 61.664 253.285 61.664C253.802 61.664 254.279 61.7467 254.717 61.912C255.154 62.0773 255.53 62.32 255.845 62.64C256.159 62.9547 256.405 63.344 256.581 63.808C256.762 64.2667 256.852 64.792 256.852 65.384C256.852 65.6827 256.821 65.8853 256.757 65.992C256.693 66.0933 256.57 66.144 256.389 66.144H251.309ZM258.335 70V61.792H259.543C259.799 61.792 259.967 61.912 260.047 62.152L260.175 62.76C260.319 62.6 260.469 62.4533 260.623 62.32C260.783 62.1867 260.951 62.072 261.127 61.976C261.309 61.88 261.501 61.8053 261.703 61.752C261.911 61.6933 262.138 61.664 262.383 61.664C262.901 61.664 263.325 61.8053 263.655 62.088C263.991 62.3653 264.242 62.736 264.407 63.2C264.535 62.928 264.695 62.696 264.887 62.504C265.079 62.3067 265.29 62.1467 265.519 62.024C265.749 61.9013 265.991 61.8107 266.247 61.752C266.509 61.6933 266.77 61.664 267.031 61.664C267.485 61.664 267.887 61.7333 268.239 61.872C268.591 62.0107 268.887 62.2133 269.127 62.48C269.367 62.7467 269.549 63.072 269.671 63.456C269.799 63.84 269.863 64.28 269.863 64.776V70H267.887V64.776C267.887 64.2533 267.773 63.8613 267.543 63.6C267.314 63.3333 266.978 63.2 266.535 63.2C266.333 63.2 266.143 63.2347 265.967 63.304C265.797 63.3733 265.645 63.4747 265.511 63.608C265.383 63.736 265.282 63.8987 265.207 64.096C265.133 64.2933 265.095 64.52 265.095 64.776V70H263.111V64.776C263.111 64.2267 262.999 63.8267 262.775 63.576C262.557 63.3253 262.234 63.2 261.807 63.2C261.519 63.2 261.25 63.272 260.999 63.416C260.754 63.5547 260.525 63.7467 260.311 63.992V70H258.335ZM277.68 61.792V70H275.696V61.792H277.68ZM277.952 59.4C277.952 59.5707 277.918 59.7307 277.848 59.88C277.779 60.0293 277.686 60.16 277.568 60.272C277.456 60.384 277.323 60.4747 277.168 60.544C277.014 60.608 276.848 60.64 276.672 60.64C276.502 60.64 276.339 60.608 276.184 60.544C276.035 60.4747 275.904 60.384 275.792 60.272C275.68 60.16 275.59 60.0293 275.52 59.88C275.456 59.7307 275.424 59.5707 275.424 59.4C275.424 59.224 275.456 59.0587 275.52 58.904C275.59 58.7493 275.68 58.616 275.792 58.504C275.904 58.392 276.035 58.304 276.184 58.24C276.339 58.1707 276.502 58.136 276.672 58.136C276.848 58.136 277.014 58.1707 277.168 58.24C277.323 58.304 277.456 58.392 277.568 58.504C277.686 58.616 277.779 58.7493 277.848 58.904C277.918 59.0587 277.952 59.224 277.952 59.4ZM281.543 62.8C281.708 62.6347 281.881 62.4827 282.063 62.344C282.249 62.2 282.444 62.08 282.647 61.984C282.855 61.8827 283.076 61.8053 283.311 61.752C283.545 61.6933 283.801 61.664 284.079 61.664C284.527 61.664 284.924 61.7413 285.271 61.896C285.617 62.0453 285.905 62.2587 286.135 62.536C286.369 62.808 286.545 63.136 286.663 63.52C286.785 63.8987 286.847 64.3173 286.847 64.776V70H284.871V64.776C284.871 64.2747 284.756 63.888 284.527 63.616C284.297 63.3387 283.948 63.2 283.479 63.2C283.137 63.2 282.817 63.2773 282.519 63.432C282.22 63.5867 281.937 63.7973 281.671 64.064V70H279.695V61.792H280.903C281.159 61.792 281.327 61.912 281.407 62.152L281.543 62.8ZM295.353 70.128C294.638 70.128 294.089 69.928 293.705 69.528C293.326 69.1227 293.137 68.5653 293.137 67.856V63.272H292.297C292.19 63.272 292.099 63.2373 292.025 63.168C291.95 63.0987 291.913 62.9947 291.913 62.856V62.072L293.233 61.856L293.649 59.616C293.675 59.5093 293.726 59.4267 293.801 59.368C293.875 59.3093 293.971 59.28 294.089 59.28H295.113V61.864H297.305V63.272H295.113V67.72C295.113 67.976 295.174 68.176 295.297 68.32C295.425 68.464 295.598 68.536 295.817 68.536C295.939 68.536 296.041 68.5227 296.121 68.496C296.206 68.464 296.278 68.432 296.337 68.4C296.401 68.368 296.457 68.3387 296.505 68.312C296.553 68.28 296.601 68.264 296.649 68.264C296.707 68.264 296.755 68.28 296.793 68.312C296.83 68.3387 296.87 68.3813 296.913 68.44L297.505 69.4C297.217 69.64 296.886 69.8213 296.513 69.944C296.139 70.0667 295.753 70.128 295.353 70.128ZM300.546 62.672C300.866 62.3733 301.218 62.1307 301.602 61.944C301.986 61.7573 302.436 61.664 302.954 61.664C303.402 61.664 303.799 61.7413 304.146 61.896C304.492 62.0453 304.78 62.2587 305.01 62.536C305.244 62.808 305.42 63.136 305.538 63.52C305.66 63.8987 305.722 64.3173 305.722 64.776V70H303.746V64.776C303.746 64.2747 303.631 63.888 303.402 63.616C303.172 63.3387 302.823 63.2 302.354 63.2C302.012 63.2 301.692 63.2773 301.394 63.432C301.095 63.5867 300.812 63.7973 300.546 64.064V70H298.57V58.112H300.546V62.672ZM312.889 64.952C312.889 64.696 312.852 64.456 312.777 64.232C312.708 64.0027 312.601 63.8027 312.457 63.632C312.313 63.4613 312.129 63.328 311.905 63.232C311.686 63.1307 311.43 63.08 311.137 63.08C310.566 63.08 310.116 63.2427 309.785 63.568C309.46 63.8933 309.252 64.3547 309.161 64.952H312.889ZM309.121 66.144C309.153 66.5653 309.228 66.9307 309.345 67.24C309.462 67.544 309.617 67.7973 309.809 68C310.001 68.1973 310.228 68.3467 310.489 68.448C310.756 68.544 311.049 68.592 311.369 68.592C311.689 68.592 311.964 68.5547 312.193 68.48C312.428 68.4053 312.63 68.3227 312.801 68.232C312.977 68.1413 313.129 68.0587 313.257 67.984C313.39 67.9093 313.518 67.872 313.641 67.872C313.806 67.872 313.929 67.9333 314.009 68.056L314.577 68.776C314.358 69.032 314.113 69.248 313.841 69.424C313.569 69.5947 313.284 69.7333 312.985 69.84C312.692 69.9413 312.39 70.0133 312.081 70.056C311.777 70.0987 311.481 70.12 311.193 70.12C310.622 70.12 310.092 70.0267 309.601 69.84C309.11 69.648 308.684 69.368 308.321 69C307.958 68.6267 307.673 68.168 307.465 67.624C307.257 67.0747 307.153 66.44 307.153 65.72C307.153 65.16 307.244 64.6347 307.425 64.144C307.606 63.648 307.865 63.2187 308.201 62.856C308.542 62.488 308.956 62.1973 309.441 61.984C309.932 61.7707 310.484 61.664 311.097 61.664C311.614 61.664 312.092 61.7467 312.529 61.912C312.966 62.0773 313.342 62.32 313.657 62.64C313.972 62.9547 314.217 63.344 314.393 63.808C314.574 64.2667 314.665 64.792 314.665 65.384C314.665 65.6827 314.633 65.8853 314.569 65.992C314.505 66.0933 314.382 66.144 314.201 66.144H309.121ZM322.039 58.112V70H320.062V58.112H322.039ZM326.055 61.792V70H324.071V61.792H326.055ZM326.327 59.4C326.327 59.5707 326.293 59.7307 326.223 59.88C326.154 60.0293 326.061 60.16 325.943 60.272C325.831 60.384 325.698 60.4747 325.543 60.544C325.389 60.608 325.223 60.64 325.047 60.64C324.877 60.64 324.714 60.608 324.559 60.544C324.41 60.4747 324.279 60.384 324.167 60.272C324.055 60.16 323.965 60.0293 323.895 59.88C323.831 59.7307 323.799 59.5707 323.799 59.4C323.799 59.224 323.831 59.0587 323.895 58.904C323.965 58.7493 324.055 58.616 324.167 58.504C324.279 58.392 324.41 58.304 324.559 58.24C324.714 58.1707 324.877 58.136 325.047 58.136C325.223 58.136 325.389 58.1707 325.543 58.24C325.698 58.304 325.831 58.392 325.943 58.504C326.061 58.616 326.154 58.7493 326.223 58.904C326.293 59.0587 326.327 59.224 326.327 59.4ZM333.078 63.392C333.024 63.4773 332.968 63.5387 332.91 63.576C332.851 63.608 332.776 63.624 332.686 63.624C332.59 63.624 332.486 63.5973 332.374 63.544C332.267 63.4907 332.142 63.432 331.998 63.368C331.854 63.2987 331.688 63.2373 331.502 63.184C331.32 63.1307 331.104 63.104 330.854 63.104C330.464 63.104 330.158 63.1867 329.934 63.352C329.715 63.5173 329.606 63.7333 329.606 64C329.606 64.176 329.662 64.3253 329.774 64.448C329.891 64.5653 330.043 64.6693 330.23 64.76C330.422 64.8507 330.638 64.9333 330.878 65.008C331.118 65.0773 331.36 65.1547 331.606 65.24C331.856 65.3253 332.102 65.424 332.342 65.536C332.582 65.6427 332.795 65.7813 332.982 65.952C333.174 66.1173 333.326 66.3173 333.438 66.552C333.555 66.7867 333.614 67.0693 333.614 67.4C333.614 67.7947 333.542 68.16 333.398 68.496C333.259 68.8267 333.051 69.1147 332.774 69.36C332.496 69.6 332.152 69.7893 331.742 69.928C331.336 70.0613 330.867 70.128 330.334 70.128C330.051 70.128 329.774 70.1013 329.502 70.048C329.235 70 328.976 69.9307 328.726 69.84C328.48 69.7493 328.251 69.6427 328.038 69.52C327.83 69.3973 327.646 69.264 327.486 69.12L327.942 68.368C328 68.2773 328.07 68.208 328.15 68.16C328.23 68.112 328.331 68.088 328.454 68.088C328.576 68.088 328.691 68.1227 328.798 68.192C328.91 68.2613 329.038 68.336 329.182 68.416C329.326 68.496 329.494 68.5707 329.686 68.64C329.883 68.7093 330.131 68.744 330.43 68.744C330.664 68.744 330.864 68.7173 331.03 68.664C331.2 68.6053 331.339 68.5307 331.446 68.44C331.558 68.3493 331.638 68.2453 331.686 68.128C331.739 68.0053 331.766 67.88 331.766 67.752C331.766 67.56 331.707 67.4027 331.59 67.28C331.478 67.1573 331.326 67.0507 331.134 66.96C330.947 66.8693 330.731 66.7893 330.486 66.72C330.246 66.6453 329.998 66.5653 329.742 66.48C329.491 66.3947 329.243 66.296 328.998 66.184C328.758 66.0667 328.542 65.92 328.35 65.744C328.163 65.568 328.011 65.352 327.894 65.096C327.782 64.84 327.726 64.5307 327.726 64.168C327.726 63.832 327.792 63.512 327.926 63.208C328.059 62.904 328.254 62.64 328.51 62.416C328.771 62.1867 329.094 62.0053 329.478 61.872C329.867 61.7333 330.315 61.664 330.822 61.664C331.387 61.664 331.902 61.7573 332.366 61.944C332.83 62.1307 333.216 62.376 333.526 62.68L333.078 63.392ZM337.837 70.128C337.122 70.128 336.573 69.928 336.189 69.528C335.81 69.1227 335.621 68.5653 335.621 67.856V63.272H334.781C334.674 63.272 334.584 63.2373 334.509 63.168C334.434 63.0987 334.397 62.9947 334.397 62.856V62.072L335.717 61.856L336.133 59.616C336.16 59.5093 336.21 59.4267 336.285 59.368C336.36 59.3093 336.456 59.28 336.573 59.28H337.597V61.864H339.789V63.272H337.597V67.72C337.597 67.976 337.658 68.176 337.781 68.32C337.909 68.464 338.082 68.536 338.301 68.536C338.424 68.536 338.525 68.5227 338.605 68.496C338.69 68.464 338.762 68.432 338.821 68.4C338.885 68.368 338.941 68.3387 338.989 68.312C339.037 68.28 339.085 68.264 339.133 68.264C339.192 68.264 339.24 68.28 339.277 68.312C339.314 68.3387 339.354 68.3813 339.397 68.44L339.989 69.4C339.701 69.64 339.37 69.8213 338.997 69.944C338.624 70.0667 338.237 70.128 337.837 70.128ZM340.766 68.912C340.766 68.7467 340.795 68.5893 340.854 68.44C340.918 68.2907 341.003 68.1627 341.11 68.056C341.217 67.9493 341.345 67.864 341.494 67.8C341.643 67.736 341.803 67.704 341.974 67.704C342.145 67.704 342.302 67.736 342.446 67.8C342.595 67.864 342.723 67.9493 342.83 68.056C342.942 68.1627 343.03 68.2907 343.094 68.44C343.158 68.5893 343.19 68.7467 343.19 68.912C343.19 69.0827 343.158 69.2427 343.094 69.392C343.03 69.536 342.942 69.6613 342.83 69.768C342.723 69.8747 342.595 69.9573 342.446 70.016C342.302 70.08 342.145 70.112 341.974 70.112C341.803 70.112 341.643 70.08 341.494 70.016C341.345 69.9573 341.217 69.8747 341.11 69.768C341.003 69.6613 340.918 69.536 340.854 69.392C340.795 69.2427 340.766 69.0827 340.766 68.912Z" fill="#808080"/>
</svg>
